<svg width="458" height="557" viewBox="0 0 458 557" fill="none" xmlns="http://www.w3.org/2000/svg">
<g clip-path="url(#clip0_483_6620)">
<path d="M412.935 184.864V488.063H45.0635L45.0635 184.864C45.0635 83.0855 127.416 0.567383 228.997 0.567383C279.787 0.567383 325.771 21.194 359.064 54.545C392.349 87.896 412.935 133.971 412.935 184.862V184.864Z" fill="white"/>
<path d="M413.503 488.631H44.4971L44.4971 184.865C44.4971 135.488 63.6894 89.0639 98.5373 54.1471C133.385 19.2303 179.717 0 228.997 0C278.276 0 324.61 19.2303 359.465 54.1448C394.313 89.0616 413.503 135.483 413.503 184.865V488.633V488.631ZM45.6321 487.494H412.368V184.865C412.368 135.789 393.296 89.6503 358.662 54.95C324.021 20.2475 277.973 1.13729 228.997 1.13729C127.889 1.13729 45.6321 83.5565 45.6321 184.865L45.6321 487.496V487.494Z" fill="black"/>
<path d="M457.433 461.305V478.339C457.433 489.455 448.438 498.461 437.35 498.461H20.6513C9.55705 498.461 0.568359 489.452 0.568359 478.339L0.568359 461.305C0.568359 460.479 0.615359 459.643 0.718758 458.828C5.07563 422.225 105.62 392.938 228.996 392.938C315.283 392.938 390.395 407.259 429.255 428.392C434.942 431.486 439.858 434.726 443.916 438.093C451.77 444.601 456.421 451.571 457.285 458.828C457.389 459.643 457.436 460.479 457.436 461.305H457.433Z" fill="#0EE1FE"/>
<path d="M437.351 499.031H20.6517C9.26363 499.031 0 489.749 0 478.341L0 461.308C0 460.422 0.0516996 459.563 0.155099 458.758C2.29358 440.787 27.1235 424.043 70.0671 411.613C112.936 399.204 169.377 392.371 228.996 392.371C312.4 392.371 389.237 405.983 429.525 427.893C435.283 431.025 440.246 434.309 444.276 437.655C452.416 444.399 456.982 451.501 457.847 458.76C457.948 459.561 458 460.418 458 461.305V478.339C458 489.749 448.736 499.031 437.348 499.031H437.351ZM228.994 393.508C169.478 393.508 113.149 400.325 70.3797 412.706C27.9014 425.002 3.36048 441.406 1.27839 458.899C1.18204 459.662 1.13269 460.469 1.13269 461.308L1.13269 478.341C1.13269 489.123 9.88873 497.896 20.6493 497.896H437.348C448.109 497.896 456.865 489.123 456.865 478.341V461.308C456.865 460.467 456.816 459.659 456.719 458.901C455.89 451.936 451.46 445.084 443.55 438.531C439.574 435.232 434.672 431.988 428.98 428.891C388.847 407.064 312.216 393.506 228.992 393.506L228.994 393.508Z" fill="black"/>
<path d="M443.914 438.093V471.468H429.252V428.392C434.939 431.486 439.855 434.726 443.914 438.093Z" fill="black"/>
<path d="M228.999 556.432C355.159 556.432 457.431 525.823 457.431 488.063C457.431 450.304 355.159 419.694 228.999 419.694C102.839 419.694 0.566406 450.304 0.566406 488.063C0.566406 525.823 102.839 556.432 228.999 556.432Z" fill="#01257F"/>
<path d="M228.999 557C167.93 557 110.506 549.88 67.3106 536.953C23.904 523.96 0 506.599 0 488.064C0 469.528 23.904 452.167 67.3106 439.174C110.506 426.245 167.93 419.127 228.999 419.127C290.068 419.127 347.492 426.247 390.687 439.174C434.094 452.165 457.998 469.528 457.998 488.064C457.998 506.599 434.094 523.96 390.687 536.95C347.49 549.88 290.068 556.998 228.999 556.998V557ZM228.999 420.264C103.355 420.264 1.13504 450.679 1.13504 488.064C1.13504 525.448 103.355 555.863 228.999 555.863C354.643 555.863 456.865 525.448 456.865 488.064C456.865 450.679 354.645 420.264 228.999 420.264Z" fill="black"/>
<path d="M228.999 79.829C205.567 79.829 183.529 76.4595 166.945 70.3398C150.183 64.1542 140.952 55.8588 140.952 46.9819C140.952 38.1049 150.183 29.8072 166.945 23.6239C183.529 17.5042 205.567 14.1348 228.999 14.1348C252.431 14.1348 274.469 17.5042 291.053 23.6239C307.815 29.8096 317.046 38.1049 317.046 46.9819C317.046 55.8588 307.815 64.1542 291.053 70.3398C274.469 76.4595 252.431 79.829 228.999 79.829ZM228.999 15.2697C181.076 15.2697 142.087 29.4964 142.087 46.9819C142.087 64.4674 181.076 78.6941 228.999 78.6941C276.922 78.6941 315.911 64.4674 315.911 46.9819C315.911 29.4964 276.922 15.2697 228.999 15.2697Z" fill="black"/>
<path d="M350.068 494.628C350.068 515.142 294.488 531.784 225.918 531.784C157.348 531.784 101.775 515.142 101.775 494.628C101.775 492.21 102.551 489.843 104.024 487.555C115.055 470.415 165.439 457.465 225.918 457.465C286.397 457.465 336.79 470.415 347.821 487.555C349.294 489.846 350.07 492.21 350.07 494.628H350.068Z" fill="black"/>
<path d="M225.915 532.352C192.703 532.352 161.472 528.478 137.97 521.443C114.263 514.346 101.204 504.824 101.204 494.628C101.204 492.142 101.991 489.657 103.542 487.246C114.86 469.66 166.325 456.897 225.913 456.897C285.502 456.897 336.973 469.662 348.293 487.246C349.844 489.657 350.631 492.142 350.631 494.628C350.631 504.824 337.575 514.346 313.866 521.443C290.364 528.476 259.13 532.352 225.913 532.352H225.915ZM225.915 458.032C166.684 458.032 115.621 470.578 104.499 487.861C103.068 490.086 102.341 492.363 102.341 494.628C102.341 504.277 115.111 513.413 138.296 520.355C161.695 527.36 192.811 531.217 225.915 531.217C259.02 531.217 290.143 527.36 313.542 520.355C336.729 513.413 349.499 504.277 349.499 494.628C349.499 492.363 348.773 490.086 347.341 487.861C336.219 470.578 285.151 458.032 225.915 458.032Z" fill="black"/>
<path d="M347.818 487.555C336.773 504.687 286.397 517.628 225.915 517.628C165.434 517.628 115.066 504.685 104.021 487.555C115.052 470.415 165.436 457.465 225.915 457.465C286.394 457.465 336.787 470.415 347.818 487.555Z" fill="white"/>
<path d="M225.915 518.198C166.341 518.198 114.876 505.441 103.544 487.863L103.345 487.555L103.542 487.246C114.86 469.66 166.324 456.897 225.913 456.897C285.501 456.897 336.973 469.662 348.293 487.246L348.49 487.555L348.291 487.863C336.959 505.441 285.49 518.198 225.913 518.198H225.915ZM104.701 487.555C116.246 504.671 167.053 517.061 225.915 517.061C284.778 517.061 335.591 504.671 347.137 487.555C335.605 470.432 284.794 458.035 225.915 458.035C167.036 458.035 116.232 470.432 104.701 487.555Z" fill="black"/>
<path d="M82.1389 409.087H81.0039V435.842H82.1389V409.087Z" fill="black"/>
<path d="M98.6643 405.496H97.5293V432.252H98.6643V405.496Z" fill="black"/>
<path d="M379.505 409.88H378.37V436.483H379.505V409.88Z" fill="black"/>
<path d="M361.211 405.868H360.076V432.624H361.211V405.868Z" fill="black"/>
<path d="M122.789 420.909C127.037 420.909 130.481 417.459 130.481 413.203C130.481 408.946 127.037 405.496 122.789 405.496C118.541 405.496 115.098 408.946 115.098 413.203C115.098 417.459 118.541 420.909 122.789 420.909Z" fill="url(#paint0_linear_483_6620)"/>
<path d="M122.789 421.477C118.235 421.477 114.531 417.764 114.531 413.203C114.531 408.642 118.235 404.928 122.789 404.928C127.343 404.928 131.047 408.642 131.047 413.203C131.047 417.764 127.341 421.477 122.789 421.477ZM122.789 406.063C118.86 406.063 115.664 409.266 115.664 413.203C115.664 417.14 118.86 420.342 122.789 420.342C126.718 420.342 129.914 417.14 129.914 413.203C129.914 409.266 126.718 406.063 122.789 406.063Z" fill="black"/>
<path d="M145.736 418.051C149.984 418.051 153.428 414.6 153.428 410.344C153.428 406.088 149.984 402.637 145.736 402.637C141.489 402.637 138.045 406.088 138.045 410.344C138.045 414.6 141.489 418.051 145.736 418.051Z" fill="url(#paint1_linear_483_6620)"/>
<path d="M145.736 418.621C141.182 418.621 137.479 414.907 137.479 410.346C137.479 405.786 141.184 402.072 145.736 402.072C150.288 402.072 153.994 405.786 153.994 410.346C153.994 414.907 150.288 418.621 145.736 418.621ZM145.736 403.207C141.807 403.207 138.611 406.41 138.611 410.346C138.611 414.283 141.807 417.486 145.736 417.486C149.666 417.486 152.861 414.283 152.861 410.346C152.861 406.41 149.666 403.207 145.736 403.207Z" fill="black"/>
<path d="M363.318 143.756C367.566 143.756 371.01 140.306 371.01 136.049C371.01 131.793 367.566 128.343 363.318 128.343C359.071 128.343 355.627 131.793 355.627 136.049C355.627 140.306 359.071 143.756 363.318 143.756Z" fill="url(#paint2_linear_483_6620)"/>
<path d="M363.318 144.326C358.764 144.326 355.061 140.613 355.061 136.052C355.061 131.491 358.766 127.778 363.318 127.778C367.87 127.778 371.576 131.491 371.576 136.052C371.576 140.613 367.87 144.326 363.318 144.326ZM363.318 128.913C359.389 128.913 356.193 132.115 356.193 136.052C356.193 139.989 359.389 143.191 363.318 143.191C367.248 143.191 370.444 139.989 370.444 136.052C370.444 132.115 367.248 128.913 363.318 128.913Z" fill="black"/>
<path d="M101.656 150.583C105.904 150.583 109.348 147.132 109.348 142.876C109.348 138.62 105.904 135.169 101.656 135.169C97.4084 135.169 93.9648 138.62 93.9648 142.876C93.9648 147.132 97.4084 150.583 101.656 150.583Z" fill="url(#paint3_linear_483_6620)"/>
<path d="M101.656 151.153C97.102 151.153 93.3984 147.439 93.3984 142.878C93.3984 138.318 97.1044 134.604 101.656 134.604C106.208 134.604 109.914 138.318 109.914 142.878C109.914 147.439 106.211 151.153 101.656 151.153ZM101.656 135.739C97.7271 135.739 94.5311 138.941 94.5311 142.878C94.5311 146.815 97.7271 150.018 101.656 150.018C105.585 150.018 108.781 146.815 108.781 142.878C108.781 138.941 105.585 135.739 101.656 135.739Z" fill="black"/>
<path d="M366.991 319.922C371.239 319.922 374.683 316.472 374.683 312.216C374.683 307.959 371.239 304.509 366.991 304.509C362.743 304.509 359.3 307.959 359.3 312.216C359.3 316.472 362.743 319.922 366.991 319.922Z" fill="url(#paint4_linear_483_6620)"/>
<path d="M366.991 320.49C362.437 320.49 358.733 316.777 358.733 312.216C358.733 307.655 362.439 303.942 366.991 303.942C371.543 303.942 375.249 307.655 375.249 312.216C375.249 316.777 371.543 320.49 366.991 320.49ZM366.991 305.077C363.062 305.077 359.866 308.279 359.866 312.216C359.866 316.153 363.062 319.355 366.991 319.355C370.92 319.355 374.116 316.153 374.116 312.216C374.116 308.279 370.92 305.077 366.991 305.077Z" fill="black"/>
<path d="M396.715 434.658C400.587 434.658 403.727 431.512 403.727 427.632C403.727 423.751 400.587 420.606 396.715 420.606C392.842 420.606 389.702 423.751 389.702 427.632C389.702 431.512 392.842 434.658 396.715 434.658Z" fill="#01257F"/>
<path d="M396.715 435.228C392.534 435.228 389.134 431.821 389.134 427.634C389.134 423.448 392.534 420.041 396.715 420.041C400.895 420.041 404.294 423.448 404.294 427.634C404.294 431.821 400.893 435.228 396.715 435.228ZM396.715 421.175C393.162 421.175 390.269 424.072 390.269 427.634C390.269 431.197 393.159 434.093 396.715 434.093C400.27 434.093 403.161 431.197 403.161 427.634C403.161 424.072 400.27 421.175 396.715 421.175Z" fill="black"/>
<path d="M324.314 168.069C324.051 189.595 316.684 209.407 304.449 225.256C287.252 247.538 278.344 275.137 278.344 303.305V313.684H179.651V302.622C179.651 274.35 170.037 247.06 152.991 224.531C140.867 208.508 133.674 188.536 133.674 166.875C133.674 113.216 177.832 69.8856 231.725 71.395C283.551 72.8454 324.946 116.124 324.312 168.069H324.314Z" fill="url(#paint5_linear_483_6620)"/>
<path d="M278.912 314.252H179.085V302.622C179.085 274.708 169.906 247.825 152.539 224.874C139.826 208.074 133.107 188.017 133.107 166.875C133.107 140.701 143.424 116.234 162.156 97.981C180.878 79.7373 205.569 70.0833 231.743 70.8274C256.952 71.5338 280.52 82.0354 298.102 100.404C315.68 118.765 325.19 142.799 324.88 168.076C324.624 189.105 317.713 208.997 304.896 225.604C288.138 247.319 278.91 274.913 278.91 303.305V314.252H278.912ZM180.22 313.114H277.777V303.305C277.777 274.661 287.09 246.82 304.001 224.91C316.665 208.5 323.494 188.844 323.747 168.062C324.377 116.51 283.09 73.401 231.713 71.9623C205.884 71.2418 181.451 80.7686 162.95 98.7957C144.439 116.832 134.245 141.01 134.245 166.875C134.245 187.768 140.884 207.584 153.447 224.187C170.963 247.338 180.222 274.458 180.222 302.622V313.114H180.22Z" fill="black"/>
<path d="M228.663 287.651C202.23 287.397 179.39 290.856 161.364 295.043C154.029 296.745 148.836 303.284 148.836 310.828V313.644C148.836 321.424 155.132 327.732 162.896 327.732H288.944C296.709 327.732 303.004 321.424 303.004 313.644V310.828C303.004 303.307 297.848 296.757 290.538 295.057C273.662 291.134 252.729 287.884 228.665 287.654L228.663 287.651Z" fill="#01257F"/>
<path d="M288.944 328.299H162.896C154.831 328.299 148.27 321.725 148.27 313.644V310.828C148.27 302.98 153.602 296.26 161.237 294.487C183.334 289.356 206.02 286.867 228.67 287.082C249.495 287.282 270.354 289.778 290.664 294.501C298.264 296.267 303.571 302.98 303.571 310.826V313.642C303.571 321.723 297.009 328.297 288.944 328.297V328.299ZM225.936 288.207C204.284 288.207 182.617 290.691 161.493 295.596C154.375 297.249 149.405 303.512 149.405 310.828V313.644C149.405 321.099 155.458 327.162 162.896 327.162H288.944C296.384 327.162 302.436 321.097 302.436 313.644V310.828C302.436 303.515 297.489 297.256 290.408 295.61C270.175 290.906 249.401 288.421 228.658 288.221C227.751 288.212 226.844 288.207 225.936 288.207Z" fill="black"/>
<path d="M228.663 302.982C202.23 302.728 179.39 306.187 161.364 310.373C154.029 312.076 148.836 318.615 148.836 326.159V328.975C148.836 336.755 155.132 343.063 162.896 343.063H288.944C296.709 343.063 303.004 336.755 303.004 328.975V326.159C303.004 318.638 297.848 312.088 290.538 310.387C273.662 306.465 252.729 303.215 228.665 302.985L228.663 302.982Z" fill="#01257F"/>
<path d="M288.944 343.63H162.896C154.831 343.63 148.27 337.056 148.27 328.975V326.159C148.27 318.311 153.602 311.591 161.237 309.818C183.331 304.687 206.006 302.203 228.67 302.412C249.495 302.613 270.354 305.108 290.664 309.832C298.264 311.598 303.571 318.311 303.571 326.157V328.973C303.571 337.054 297.009 343.628 288.944 343.628V343.63ZM225.939 303.536C204.284 303.536 182.617 306.017 161.493 310.924C154.375 312.577 149.405 318.841 149.405 326.157V328.973C149.405 336.427 155.458 342.491 162.896 342.491H288.944C296.384 342.491 302.436 336.425 302.436 328.973V326.157C302.436 318.843 297.489 312.584 290.408 310.939C270.175 306.234 249.401 303.75 228.658 303.55C227.753 303.54 226.844 303.536 225.939 303.536Z" fill="black"/>
<path d="M228.663 320.079C202.23 319.825 179.39 323.284 161.364 327.471C154.029 329.173 148.836 335.712 148.836 343.256V346.072C148.836 353.852 155.132 360.16 162.896 360.16H288.944C296.709 360.16 303.004 353.852 303.004 346.072V343.256C303.004 335.735 297.848 329.185 290.538 327.485C273.662 323.562 252.729 320.312 228.665 320.082L228.663 320.079Z" fill="#01257F"/>
<path d="M288.944 360.727H162.896C154.831 360.727 148.27 354.153 148.27 346.072V343.256C148.27 335.408 153.602 328.688 161.237 326.915C183.334 321.784 206.02 319.295 228.67 319.51C249.495 319.71 270.354 322.206 290.664 326.929C298.264 328.695 303.571 335.408 303.571 343.254V346.07C303.571 354.151 297.009 360.725 288.944 360.725V360.727ZM225.936 320.635C204.284 320.635 182.617 323.119 161.493 328.024C154.375 329.677 149.405 335.94 149.405 343.256V346.072C149.405 353.527 155.458 359.59 162.896 359.59H288.944C296.384 359.59 302.436 353.525 302.436 346.072V343.256C302.436 335.943 297.489 329.684 290.408 328.038C270.175 323.334 249.401 320.849 228.658 320.649C227.751 320.64 226.844 320.635 225.936 320.635Z" fill="black"/>
<path d="M225.92 373.165C266.326 373.165 299.082 364.601 299.082 354.038C299.082 343.474 266.326 334.911 225.92 334.911C185.514 334.911 152.758 343.474 152.758 354.038C152.758 364.601 185.514 373.165 225.92 373.165Z" fill="black"/>
<path d="M225.92 373.734C184.577 373.734 152.191 365.083 152.191 354.038C152.191 342.992 184.577 334.341 225.92 334.341C267.263 334.341 299.648 342.992 299.648 354.038C299.648 365.083 267.263 373.734 225.92 373.734ZM225.92 335.481C206.424 335.481 188.104 337.464 174.331 341.064C160.983 344.553 153.326 349.284 153.326 354.038C153.326 358.792 160.983 363.522 174.331 367.012C188.104 370.612 206.424 372.595 225.92 372.595C245.415 372.595 263.736 370.612 277.509 367.012C290.857 363.522 298.513 358.792 298.513 354.038C298.513 349.284 290.857 344.553 277.509 341.064C263.736 337.464 245.415 335.481 225.92 335.481Z" fill="black"/>
<path d="M226.487 287.639H225.354V202.343L197.502 187.605V132.429H198.635V186.92L226.487 201.66V287.639Z" fill="black"/>
<path d="M226.097 223.963L225.744 222.882L250.459 214.757V162.498H251.594V215.581L226.097 223.963Z" fill="black"/>
<path d="M255.611 151.099H246.442C245.291 151.099 244.357 152.034 244.357 153.188V171.808C244.357 172.962 245.291 173.897 246.442 173.897H255.611C256.763 173.897 257.696 172.962 257.696 171.808V153.188C257.696 152.034 256.763 151.099 255.611 151.099Z" fill="white"/>
<path d="M252.663 174.466H249.387C246.299 174.466 243.789 171.949 243.789 168.858V156.143C243.789 153.049 246.301 150.534 249.387 150.534H252.663C255.75 150.534 258.26 153.051 258.26 156.143V168.858C258.26 171.952 255.748 174.466 252.663 174.466ZM249.389 151.669C246.929 151.669 244.924 153.675 244.924 156.143V168.858C244.924 171.323 246.926 173.331 249.389 173.331H252.665C255.125 173.331 257.13 171.325 257.13 168.858V156.143C257.13 153.677 255.128 151.669 252.665 151.669H249.389Z" fill="black"/>
<path d="M203.242 121.621H194.073C192.922 121.621 191.988 122.556 191.988 123.71V142.33C191.988 143.484 192.922 144.419 194.073 144.419H203.242C204.394 144.419 205.327 143.484 205.327 142.33V123.71C205.327 122.556 204.394 121.621 203.242 121.621Z" fill="white"/>
<path d="M200.293 144.986H197.02C193.932 144.986 191.422 142.469 191.422 139.378V126.663C191.422 123.569 193.934 121.054 197.02 121.054H200.293C203.381 121.054 205.893 123.571 205.893 126.663V139.378C205.893 142.472 203.381 144.986 200.293 144.986ZM197.02 122.189C194.559 122.189 192.555 124.195 192.555 126.663V139.378C192.555 141.843 194.557 143.852 197.02 143.852H200.293C202.756 143.852 204.758 141.845 204.758 139.378V126.663C204.758 124.197 202.756 122.189 200.293 122.189H197.02Z" fill="black"/>
<path d="M122.012 277.66L109.547 281.055L102.133 291.651C100.246 294.338 96.0889 293.613 95.2335 290.441L91.8543 277.952L81.2699 270.514C78.591 268.632 79.3124 264.467 82.4778 263.61L94.9515 260.214L102.366 249.619C104.243 246.934 108.4 247.657 109.256 250.829L112.645 263.318L123.219 270.756C125.898 272.638 125.177 276.803 122.012 277.66Z" fill="#0EE1FE"/>
<path d="M98.982 293.869C98.7211 293.869 98.4579 293.846 98.1924 293.799C96.484 293.497 95.1398 292.266 94.6862 290.587L91.361 278.296L80.9459 270.975C79.5241 269.977 78.8262 268.291 79.1246 266.574C79.4231 264.86 80.6521 263.511 82.33 263.056L94.604 259.715L101.901 249.289C102.897 247.864 104.582 247.165 106.293 247.464C108.004 247.766 109.35 248.995 109.804 250.676L113.138 262.965L123.544 270.285C124.966 271.284 125.664 272.97 125.365 274.686C125.064 276.4 123.838 277.749 122.16 278.204L109.895 281.545L102.599 291.971C101.75 293.179 100.413 293.865 98.982 293.865V293.869ZM105.515 248.535C104.453 248.535 103.459 249.046 102.831 249.944L95.2996 260.707L82.6285 264.156C81.3806 264.495 80.4665 265.498 80.2432 266.774C80.02 268.051 80.5393 269.306 81.5968 270.047L92.348 277.603L95.7813 290.29C96.1244 291.557 97.0997 292.452 98.3898 292.678C99.6635 292.901 100.923 292.383 101.67 291.319L109.202 280.556L121.864 277.107C123.112 276.768 124.026 275.764 124.249 274.488C124.472 273.212 123.953 271.957 122.895 271.215L112.154 263.659L108.713 250.973C108.375 249.722 107.374 248.806 106.1 248.583C105.905 248.547 105.71 248.531 105.517 248.531L105.515 248.535Z" fill="black"/>
<path d="M324.198 238.382L336.662 241.777L344.076 252.373C345.963 255.06 350.12 254.335 350.976 251.163L354.355 238.674L364.939 231.236C367.618 229.354 366.897 225.189 363.731 224.332L351.258 220.936L343.843 210.341C341.966 207.656 337.809 208.379 336.953 211.551L333.565 224.04L322.99 231.478C320.311 233.359 321.032 237.525 324.198 238.382Z" fill="#0EE1FE"/>
<path d="M347.227 254.591C345.798 254.591 344.459 253.906 343.613 252.698L336.314 242.269L324.047 238.928C322.369 238.474 321.142 237.124 320.841 235.41C320.541 233.694 321.239 232.008 322.663 231.009L333.071 223.689L336.405 211.398C336.859 209.716 338.205 208.487 339.916 208.186C341.627 207.885 343.31 208.584 344.308 210.011L351.605 220.437L363.879 223.778C365.557 224.233 366.784 225.582 367.084 227.296C367.385 229.013 366.687 230.699 365.263 231.697L354.848 239.018L351.523 251.309C351.069 252.988 349.725 254.217 348.017 254.52C347.751 254.568 347.488 254.591 347.227 254.591ZM340.694 209.26C340.501 209.26 340.306 209.276 340.111 209.312C338.838 209.535 337.836 210.451 337.498 211.701L334.058 224.388L323.316 231.944C322.258 232.688 321.739 233.941 321.962 235.217C322.186 236.493 323.1 237.496 324.348 237.833L337.009 241.283L344.541 252.046C345.288 253.108 346.545 253.628 347.822 253.402C349.112 253.174 350.087 252.281 350.43 251.014L353.863 238.328L364.615 230.772C365.672 230.028 366.191 228.775 365.968 227.499C365.745 226.222 364.831 225.219 363.583 224.883L350.912 221.433L343.38 210.67C342.753 209.773 341.759 209.262 340.696 209.262L340.694 209.26Z" fill="black"/>
<path d="M456.39 494.061H350.065V495.198H456.39V494.061Z" fill="black"/>
<path d="M101.777 497.896H3.19531V499.034H101.777V497.896Z" fill="black"/>
</g>
<defs>
<linearGradient id="paint0_linear_483_6620" x1="122.789" y1="405.496" x2="122.789" y2="420.909" gradientUnits="userSpaceOnUse">
<stop stop-color="#FAE11D"/>
<stop offset="0.480769" stop-color="#F28C38"/>
<stop offset="1" stop-color="#EB5733"/>
</linearGradient>
<linearGradient id="paint1_linear_483_6620" x1="145.736" y1="402.637" x2="145.736" y2="418.051" gradientUnits="userSpaceOnUse">
<stop stop-color="#FAE11D"/>
<stop offset="0.480769" stop-color="#F28C38"/>
<stop offset="1" stop-color="#EB5733"/>
</linearGradient>
<linearGradient id="paint2_linear_483_6620" x1="363.318" y1="128.343" x2="363.318" y2="143.756" gradientUnits="userSpaceOnUse">
<stop stop-color="#FAE11D"/>
<stop offset="0.480769" stop-color="#F28C38"/>
<stop offset="1" stop-color="#EB5733"/>
</linearGradient>
<linearGradient id="paint3_linear_483_6620" x1="101.656" y1="135.169" x2="101.656" y2="150.583" gradientUnits="userSpaceOnUse">
<stop stop-color="#FAE11D"/>
<stop offset="0.480769" stop-color="#F28C38"/>
<stop offset="1" stop-color="#EB5733"/>
</linearGradient>
<linearGradient id="paint4_linear_483_6620" x1="366.991" y1="304.509" x2="366.991" y2="319.922" gradientUnits="userSpaceOnUse">
<stop stop-color="#FAE11D"/>
<stop offset="0.480769" stop-color="#F28C38"/>
<stop offset="1" stop-color="#EB5733"/>
</linearGradient>
<linearGradient id="paint5_linear_483_6620" x1="228.996" y1="71.3567" x2="228.996" y2="313.684" gradientUnits="userSpaceOnUse">
<stop stop-color="#FAE11D"/>
<stop offset="0.480769" stop-color="#F28C38"/>
<stop offset="1" stop-color="#EB5733"/>
</linearGradient>
<clipPath id="clip0_483_6620">
<rect width="458" height="557" fill="white"/>
</clipPath>
</defs>
</svg>
