<svg width="456" height="604" viewBox="0 0 456 604" fill="none" xmlns="http://www.w3.org/2000/svg">
<path d="M415.424 18.8809H60.6159C52.2347 18.8809 45.4404 25.6751 45.4404 34.0563V588.285C45.4404 596.666 52.2347 603.46 60.6159 603.46H415.424C423.805 603.46 430.599 596.666 430.599 588.285V34.0563C430.599 25.6751 423.805 18.8809 415.424 18.8809Z" fill="#01257F"/>
<path d="M415.421 604H60.613C51.9495 604 44.9004 596.951 44.9004 588.288V34.0563C44.9004 25.3929 51.9495 18.3438 60.613 18.3438H415.421C424.085 18.3438 431.134 25.3929 431.134 34.0563V588.285C431.134 596.948 424.085 603.997 415.421 603.997V604ZM60.613 19.4209C52.5415 19.4209 45.9775 25.9878 45.9775 34.0563V588.285C45.9775 596.356 52.5444 602.92 60.613 602.92H415.421C423.493 602.92 430.057 596.353 430.057 588.285V34.0563C430.057 25.9849 423.49 19.4209 415.421 19.4209H60.613Z" fill="black"/>
<path d="M415.424 0.540283H60.6159C52.2347 0.540283 45.4404 7.33456 45.4404 15.7157V569.944C45.4404 578.326 52.2347 585.12 60.6159 585.12H415.424C423.805 585.12 430.599 578.326 430.599 569.944V15.7157C430.599 7.33456 423.805 0.540283 415.424 0.540283Z" fill="black"/>
<path d="M415.421 585.657H60.613C51.9495 585.657 44.9004 578.608 44.9004 569.944V15.7128C44.9004 7.04939 51.9495 0.000244141 60.613 0.000244141H415.421C424.085 0.000244141 431.134 7.04939 431.134 15.7128V569.944C431.134 578.608 424.085 585.657 415.421 585.657ZM60.613 1.0774C52.5415 1.0774 45.9775 7.64428 45.9775 15.7128V569.944C45.9775 578.016 52.5444 584.58 60.613 584.58H415.421C423.493 584.58 430.057 578.013 430.057 569.944V15.7128C430.057 7.64139 423.49 1.0774 415.421 1.0774H60.613Z" fill="black"/>
<path d="M415.938 29.9064V555.754C415.938 562.254 410.668 567.527 404.164 567.527H71.8723C65.3719 567.527 60.1045 562.263 60.1045 555.759V29.9064C60.1045 23.406 65.3747 18.1328 71.8781 18.1328H404.164C408.375 18.1328 412.065 20.3362 414.139 23.6601C415.282 25.4707 415.938 27.6135 415.938 29.9064Z" fill="#FBFBFB"/>
<path d="M404.164 568.067H71.8724C65.086 568.067 59.5674 562.546 59.5674 555.762V29.9064C59.5674 23.1172 65.0889 17.5957 71.8781 17.5957H404.164C408.438 17.5957 412.337 19.7558 414.595 23.3771C415.825 25.3264 416.475 27.5846 416.475 29.9064V555.754C416.475 562.543 410.953 568.064 404.164 568.064V568.067ZM71.8781 18.6729C65.6838 18.6729 60.6445 23.7121 60.6445 29.9064V555.759C60.6445 561.951 65.6809 566.987 71.8724 566.987H404.164C410.359 566.987 415.398 561.948 415.398 555.754V29.9064C415.398 27.7868 414.806 25.7278 413.682 23.9489C411.621 20.6452 408.063 18.6729 404.164 18.6729H71.8781Z" fill="black"/>
<path d="M157.537 88.8295L169.992 115.585L192.823 96.8836C202.408 89.0316 216.798 95.9624 216.636 108.351L216.249 137.862L244.934 130.916C256.976 128.003 266.933 140.487 261.411 151.579L248.257 177.999L277.115 184.188C289.23 186.787 292.785 202.358 282.995 209.953L259.682 228.051L282.995 246.149C292.782 253.747 289.23 269.318 277.115 271.914L248.257 278.102L261.411 304.523C266.933 315.615 256.976 328.102 244.934 325.185L216.249 318.24L216.636 347.751C216.798 360.139 202.411 367.07 192.823 359.218L169.992 340.517L157.537 367.272C152.307 378.506 136.337 378.506 131.108 367.272L118.652 340.517L95.8214 359.218C86.2367 367.07 71.8467 360.139 72.0085 347.751L72.3954 318.24L43.7108 325.185C31.6686 328.099 21.7114 315.615 27.2329 304.523L40.3869 278.102L11.529 271.914C-0.585368 269.315 -4.14026 253.744 5.64942 246.149L28.9627 228.051L5.64942 209.953C-4.13738 202.355 -0.585368 186.784 11.529 184.188L40.3869 177.999L27.2329 151.579C21.7114 140.487 31.6686 128 43.7108 130.916L72.3954 137.862L72.0085 108.351C71.8467 95.9624 86.2338 89.0316 95.8214 96.8836L118.652 115.585L131.108 88.8295C136.337 77.5959 152.307 77.5959 157.537 88.8295Z" fill="#FBFBFB"/>
<path d="M144.322 358.97C133.421 358.97 123.79 352.83 119.187 342.945L118.456 341.374L117.116 342.472C108.681 349.382 97.3406 350.734 87.5192 346.004C77.6977 341.273 71.6824 331.562 71.8268 320.66L71.8499 318.93L70.1663 319.337C59.568 321.902 48.7647 318.2 41.9668 309.678C35.1689 301.153 33.9647 289.795 38.8249 280.034L39.5959 278.484L37.9037 278.12C27.2448 275.833 19.1156 267.81 16.6898 257.18C14.264 246.55 18.1077 235.796 26.7192 229.111L28.0851 228.048L26.7192 226.985C18.1077 220.3 14.264 209.543 16.6898 198.916C19.1156 188.286 27.2448 180.263 37.9066 177.976L39.5988 177.612L38.8278 176.062C33.9676 166.301 35.1747 154.943 41.9697 146.418C48.7676 137.893 59.5738 134.194 70.1692 136.759L71.8528 137.166L71.8297 135.436C71.6882 124.534 77.7006 114.823 87.5221 110.092C97.3435 105.362 108.687 106.714 117.119 113.624L118.459 114.722L119.19 113.151C123.79 103.266 133.421 97.1262 144.325 97.1262C155.23 97.1262 164.858 103.266 169.461 113.151L170.191 114.722L171.531 113.624C179.964 106.714 191.307 105.362 201.129 110.092C210.95 114.823 216.965 124.534 216.821 135.436L216.798 137.166L218.481 136.759C229.077 134.194 239.883 137.893 246.681 146.418C253.479 154.943 254.683 166.301 249.823 176.062L249.052 177.612L250.744 177.976C261.403 180.263 269.532 188.286 271.958 198.916C274.384 209.546 270.54 220.3 261.929 226.985L260.563 228.048L261.929 229.111C270.54 235.796 274.384 246.553 271.958 257.18C269.532 267.81 261.403 275.833 250.741 278.12L249.049 278.484L249.82 280.034C254.68 289.795 253.476 301.153 246.678 309.678C239.88 318.203 229.074 321.902 218.479 319.337L216.795 318.93L216.818 320.66C216.96 331.562 210.947 341.273 201.126 346.004C191.304 350.734 179.961 349.379 171.529 342.472L170.189 341.374L169.458 342.945C164.858 352.83 155.227 358.97 144.322 358.97ZM118.849 339.665L120.166 342.492C124.587 351.993 133.845 357.893 144.325 357.893C154.805 357.893 164.061 351.993 168.485 342.492L169.802 339.665L172.213 341.64C180.319 348.282 191.221 349.582 200.661 345.033C210.101 340.488 215.882 331.154 215.744 320.675L215.703 317.556L218.736 318.289C228.918 320.755 239.305 317.198 245.841 309.005C252.373 300.812 253.531 289.896 248.861 280.514L247.472 277.721L250.522 277.069C260.768 274.871 268.582 267.161 270.913 256.943C273.243 246.726 269.55 236.388 261.273 229.963L258.81 228.051L261.273 226.139C269.55 219.714 273.246 209.375 270.913 199.158C268.582 188.941 260.768 181.231 250.522 179.033L247.472 178.381L248.861 175.588C253.531 166.208 252.373 155.29 245.841 147.097C239.308 138.904 228.921 135.346 218.736 137.813L215.703 138.546L215.744 135.427C215.882 124.95 210.101 115.614 200.661 111.069C191.221 106.52 180.319 107.823 172.213 114.462L169.802 116.437L168.485 113.61C164.064 104.109 154.805 98.2091 144.325 98.2091C133.845 98.2091 124.59 104.109 120.166 113.61L118.849 116.437L116.435 114.462C108.329 107.82 97.4273 106.52 87.987 111.069C78.5467 115.614 72.7653 124.947 72.904 135.427L72.9444 138.546L69.9122 137.813C59.7269 135.346 49.3423 138.904 42.8101 147.097C36.275 155.29 35.1198 166.206 39.7894 175.588L41.1785 178.381L38.1289 179.033C27.883 181.231 20.0685 188.944 17.7381 199.158C15.4076 209.375 19.1011 219.714 27.3776 226.139L29.8409 228.051L27.3776 229.963C19.1011 236.388 15.4047 246.726 17.7381 256.943C20.0714 267.161 27.883 274.871 38.1289 277.069L41.1785 277.721L39.7894 280.514C35.1198 289.893 36.2778 300.812 42.8101 309.005C49.3423 317.198 59.7269 320.755 69.9122 318.289L72.9444 317.556L72.904 320.675C72.7653 331.151 78.5467 340.485 87.987 345.033C97.4273 349.582 108.329 348.279 116.435 341.64L118.849 339.665Z" fill="black"/>
<path d="M392.957 167.112L398.946 179.977L409.926 170.985C414.535 167.21 421.454 170.54 421.376 176.498L421.191 190.688L434.983 187.35C440.773 185.949 445.561 191.953 442.907 197.287L436.583 209.99L450.459 212.968C456.284 214.218 457.993 221.703 453.286 225.356L442.076 234.057L453.286 242.758C457.993 246.411 456.284 253.9 450.459 255.147L436.583 258.124L442.907 270.828C445.561 276.162 440.773 282.165 434.983 280.765L421.191 277.427L421.376 291.617C421.454 297.575 414.535 300.907 409.926 297.13L398.946 288.137L392.957 301.003C390.442 306.403 382.763 306.403 380.248 301.003L374.258 288.137L363.279 297.13C358.67 300.904 351.751 297.575 351.829 291.617L352.014 277.427L338.221 280.765C332.431 282.165 327.643 276.162 330.297 270.828L336.622 258.124L322.746 255.147C316.921 253.897 315.211 246.411 319.918 242.758L331.129 234.057L319.918 225.356C315.211 221.703 316.921 214.215 322.746 212.968L336.622 209.99L330.297 197.287C327.643 191.953 332.431 185.949 338.221 187.35L352.014 190.688L351.829 176.498C351.751 170.54 358.67 167.207 363.279 170.985L374.258 179.977L380.248 167.112C382.763 161.712 390.442 161.712 392.957 167.112Z" fill="#FBFBFB"/>
<path d="M386.601 297.292C381.25 297.292 376.52 294.277 374.262 289.425L374.062 288.998L373.699 289.298C369.557 292.692 363.99 293.356 359.167 291.034C354.344 288.712 351.393 283.944 351.462 278.593L351.468 278.12L351.009 278.229C345.805 279.488 340.503 277.672 337.165 273.488C333.827 269.303 333.237 263.727 335.623 258.936L335.834 258.514L335.372 258.416C330.139 257.293 326.148 253.354 324.955 248.138C323.765 242.92 325.651 237.638 329.879 234.358L330.251 234.069L329.879 233.78C325.651 230.497 323.765 225.218 324.955 220C326.145 214.781 330.136 210.842 335.372 209.719L335.834 209.621L335.623 209.199C333.237 204.408 333.829 198.832 337.165 194.647C340.503 190.463 345.805 188.647 351.009 189.906L351.468 190.015L351.462 189.542C351.393 184.191 354.344 179.423 359.167 177.101C363.99 174.779 369.557 175.444 373.699 178.837L374.062 179.137L374.262 178.71C376.52 173.858 381.247 170.843 386.601 170.843C391.955 170.843 396.683 173.858 398.941 178.71L399.14 179.137L399.507 178.84C403.648 175.446 409.216 174.785 414.038 177.104C418.861 179.426 421.812 184.194 421.743 189.545L421.737 190.018L422.196 189.909C427.397 188.65 432.702 190.466 436.041 194.65C439.379 198.835 439.968 204.411 437.583 209.202L437.372 209.624L437.834 209.722C443.067 210.845 447.058 214.784 448.25 220.002C449.44 225.221 447.554 230.503 443.327 233.783L442.954 234.072L443.327 234.361C447.554 237.644 449.44 242.923 448.25 248.141C447.058 253.36 443.067 257.299 437.834 258.419L437.372 258.517L437.583 258.939C439.968 263.73 439.376 269.306 436.041 273.49C432.702 277.675 427.397 279.494 422.196 278.232L421.737 278.123L421.743 278.596C421.812 283.947 418.861 288.715 414.038 291.037C409.216 293.359 403.648 292.694 399.507 289.301L399.143 289.001L398.944 289.428C396.686 294.28 391.955 297.295 386.604 297.295L386.601 297.292ZM374.455 287.286L375.241 288.972C377.32 293.439 381.675 296.218 386.604 296.218C391.534 296.218 395.889 293.442 397.968 288.972L398.753 287.286L400.191 288.464C404.003 291.588 409.132 292.198 413.573 290.061C418.015 287.921 420.732 283.531 420.669 278.602L420.646 276.742L422.454 277.178C427.244 278.336 432.131 276.664 435.203 272.812C438.276 268.957 438.822 263.822 436.624 259.41L435.795 257.743L437.615 257.353C442.434 256.32 446.108 252.692 447.205 247.887C448.302 243.082 446.564 238.219 442.671 235.195L441.201 234.055L442.671 232.914C446.564 229.89 448.302 225.03 447.205 220.225C446.108 215.42 442.434 211.792 437.615 210.759L435.795 210.369L436.624 208.705C438.822 204.293 438.276 199.158 435.203 195.303C432.131 191.451 427.247 189.776 422.454 190.937L420.646 191.376L420.669 189.516C420.732 184.586 418.015 180.197 413.573 178.057C409.132 175.917 404.006 176.529 400.191 179.654L398.753 180.832L397.968 179.146C395.889 174.678 391.534 171.9 386.604 171.9C381.675 171.9 377.32 174.675 375.241 179.146L374.455 180.832L373.017 179.654C369.202 176.532 364.076 175.92 359.635 178.057C355.193 180.197 352.476 184.586 352.54 189.516L352.563 191.376L350.755 190.937C345.964 189.779 341.081 191.451 338.005 195.303C334.933 199.155 334.387 204.293 336.584 208.705L337.413 210.369L335.594 210.759C330.774 211.792 327.101 215.42 326.003 220.225C324.906 225.03 326.645 229.893 330.537 232.914L332.007 234.055L330.537 235.195C326.645 238.219 324.906 243.082 326.003 247.887C327.101 252.692 330.774 256.32 335.594 257.353L337.413 257.743L336.584 259.41C334.387 263.822 334.933 268.957 338.005 272.812C341.078 276.664 345.964 278.336 350.755 277.178L352.563 276.742L352.54 278.602C352.476 283.531 355.193 287.921 359.635 290.061C364.076 292.201 369.202 291.586 373.017 288.464L374.455 287.286Z" fill="black"/>
<path d="M336.498 280.94L332.172 322.171C331.054 332.82 338.782 342.359 349.431 343.477L355.589 344.123C366.239 345.24 375.778 337.513 376.895 326.863L381.222 285.632C382.339 274.983 374.612 265.444 363.962 264.326L357.804 263.68C347.155 262.563 337.615 270.29 336.498 280.94Z" fill="#01257F"/>
<path d="M357.662 344.785C356.961 344.785 356.253 344.747 355.543 344.672L349.389 344.025C344.095 343.471 339.333 340.886 335.983 336.748C332.634 332.612 331.094 327.417 331.649 322.124L335.978 280.895C337.124 269.967 346.949 262.005 357.879 263.155L364.033 263.802C374.96 264.948 382.919 274.772 381.773 285.703L377.444 326.932C376.889 332.225 374.305 336.987 370.167 340.337C366.583 343.24 362.208 344.782 357.662 344.782V344.785ZM355.785 264.125C346.267 264.125 338.066 271.336 337.052 281.01L332.723 322.239C332.198 327.247 333.653 332.159 336.824 336.072C339.995 339.985 344.497 342.428 349.504 342.954L355.658 343.6C360.669 344.123 365.581 342.671 369.491 339.5C373.404 336.329 375.847 331.827 376.372 326.819L380.701 285.59C381.787 275.252 374.259 265.959 363.92 264.873L357.766 264.226C357.102 264.157 356.438 264.122 355.785 264.122V264.125Z" fill="black"/>
<path d="M311.53 271.864L305.682 327.605C304.564 338.254 312.291 347.794 322.941 348.911L329.099 349.557C339.748 350.675 349.288 342.947 350.405 332.298L356.254 276.557C357.371 265.907 349.644 256.368 338.994 255.251L332.836 254.605C322.187 253.487 312.648 261.215 311.53 271.864Z" fill="#01257F"/>
<path d="M331.149 350.217C330.456 350.217 329.757 350.182 329.052 350.107L322.899 349.46C311.971 348.314 304.012 338.489 305.159 327.559L311.009 271.821C311.564 266.528 314.148 261.766 318.287 258.416C322.422 255.066 327.614 253.524 332.911 254.081L339.064 254.728C344.358 255.283 349.12 257.867 352.47 262.006C355.82 266.141 357.359 271.336 356.804 276.629L350.954 332.367C349.879 342.593 341.21 350.217 331.149 350.217ZM330.794 255.052C326.491 255.052 322.353 256.51 318.965 259.256C315.052 262.427 312.609 266.929 312.084 271.937L306.233 327.674C305.147 338.013 312.676 347.306 323.014 348.392L329.168 349.038C329.832 349.108 330.496 349.142 331.149 349.142C340.667 349.142 348.869 341.931 349.882 332.257L355.733 276.52C356.259 271.512 354.803 266.6 351.632 262.687C348.461 258.774 343.959 256.331 338.952 255.805L332.798 255.159C332.128 255.089 331.458 255.055 330.794 255.055V255.052Z" fill="black"/>
<path d="M284.249 275.654L278.4 331.395C277.283 342.044 285.01 351.584 295.66 352.701L301.818 353.347C312.467 354.465 322.006 346.737 323.124 336.088L328.972 280.347C330.09 269.697 322.363 260.158 311.713 259.041L305.555 258.395C294.906 257.277 285.366 265.005 284.249 275.654Z" fill="#01257F"/>
<path d="M303.865 354.006C303.172 354.006 302.473 353.971 301.768 353.896L295.614 353.249C290.321 352.695 285.559 350.11 282.209 345.975C278.859 341.839 277.32 336.644 277.874 331.351L283.725 275.613C284.872 264.686 294.693 256.718 305.626 257.873L311.78 258.52C322.708 259.667 330.667 269.491 329.52 280.421L323.669 336.159C322.595 346.385 313.926 354.008 303.865 354.008V354.006ZM303.533 258.841C294.014 258.841 285.813 266.052 284.797 275.726L278.946 331.463C278.42 336.471 279.876 341.386 283.047 345.296C286.214 349.209 290.719 351.652 295.727 352.178L301.881 352.825C312.219 353.902 321.512 346.382 322.598 336.043L328.449 280.306C329.535 269.967 322.006 260.674 311.668 259.589L305.514 258.942C304.85 258.872 304.185 258.838 303.533 258.838V258.841Z" fill="black"/>
<path d="M199.54 354C197.06 354.182 194.642 353.956 192.358 353.376C184.775 351.453 178.63 345.651 176.351 338.062C175.889 336.52 175.589 334.903 175.464 333.228L174.708 322.936L172.929 298.753C172.016 286.373 181.318 275.596 193.701 274.683C194.264 274.64 194.819 274.62 195.376 274.62C207.043 274.62 216.905 283.632 217.774 295.455L219.397 317.44L220.315 329.924C221.228 342.31 211.926 353.09 199.543 354H199.54Z" fill="#01257F"/>
<path d="M197.865 354.6C195.956 354.6 194.064 354.367 192.225 353.899C184.425 351.921 178.147 345.911 175.834 338.218C175.357 336.627 175.051 334.963 174.927 333.268L172.391 298.794C171.941 292.663 173.905 286.722 177.922 282.067C181.939 277.412 187.529 274.599 193.663 274.146C194.218 274.103 194.778 274.083 195.376 274.083C207.357 274.083 217.43 283.453 218.311 295.418L220.852 329.887C221.302 336.02 219.339 341.961 215.322 346.619C211.305 351.274 205.714 354.089 199.58 354.54C199.008 354.583 198.437 354.603 197.865 354.603V354.6ZM195.373 275.157C194.804 275.157 194.27 275.177 193.741 275.217C187.893 275.648 182.565 278.33 178.733 282.766C174.904 287.205 173.033 292.865 173.463 298.71L175.998 333.184C176.12 334.802 176.411 336.387 176.865 337.903C179.068 345.235 185.055 350.965 192.488 352.85C194.763 353.428 197.123 353.633 199.499 353.46C205.344 353.029 210.675 350.347 214.504 345.908C218.334 341.47 220.205 335.807 219.775 329.959L217.233 295.49C216.396 284.086 206.794 275.154 195.373 275.154V275.157Z" fill="black"/>
<path d="M199.54 354C197.06 354.182 194.643 353.956 192.358 353.376L182.814 345.995C179.984 343.809 177.818 341.074 176.351 338.062C175.889 336.52 175.589 334.903 175.465 333.228L174.708 322.935C175.427 319.944 176.776 317.047 178.78 314.454C183.207 308.727 189.86 305.724 196.58 305.724C201.383 305.724 206.223 307.26 210.321 310.428L219.394 317.443L220.312 329.927C221.225 342.313 211.923 353.093 199.54 354.003V354Z" fill="black"/>
<path d="M182.142 323.964L178.355 328.862C171.805 337.334 173.363 349.511 181.834 356.061L214.076 380.989C222.548 387.539 234.725 385.981 241.275 377.51L245.062 372.612C251.612 364.141 250.054 351.963 241.582 345.414L209.34 320.485C200.869 313.935 188.691 315.493 182.142 323.964Z" fill="#01257F"/>
<path d="M225.892 385.602C221.506 385.602 217.269 384.161 213.743 381.435L181.504 356.504C177.293 353.247 174.602 348.548 173.926 343.267C173.25 337.985 174.671 332.761 177.929 328.547L181.715 323.652C184.972 319.442 189.673 316.751 194.952 316.075C200.231 315.396 205.458 316.82 209.672 320.077L241.911 345.008C250.603 351.731 252.209 364.27 245.486 372.965L241.7 377.86C238.443 382.07 233.741 384.761 228.463 385.437C227.605 385.547 226.744 385.602 225.895 385.602H225.892ZM197.499 317.002C191.859 317.002 186.274 319.517 182.564 324.314L178.778 329.209C172.419 337.433 173.935 349.296 182.159 355.652L214.399 380.583C222.62 386.942 234.484 385.426 240.843 377.201L244.628 372.306C250.987 364.082 249.468 352.219 241.247 345.863L209.007 320.932C205.582 318.284 201.525 317.002 197.496 317.002H197.499Z" fill="black"/>
<path d="M305.571 154.576C319.049 149.3 332.529 144.024 346.006 138.748L312.866 166.809C310.434 162.731 308.003 158.654 305.571 154.576Z" fill="#EB5733"/>
<path d="M312.73 167.629L304.783 154.308L348.828 137.067L312.728 167.632L312.73 167.629ZM306.36 154.848L313.005 165.989L343.188 140.435L306.36 154.851V154.848Z" fill="black"/>
<path d="M144.322 211.879L122.817 204.333L70.3682 263.787L141.411 239.359L144.322 211.879Z" fill="#EB5733"/>
<path d="M68.6152 264.96L122.652 203.707L144.903 211.515L141.911 239.761L68.6152 264.963V264.96ZM122.981 204.963L72.121 262.615L140.912 238.961L143.742 212.246L122.981 204.963Z" fill="black"/>
<path d="M182.095 272.159L160.589 264.613L108.141 324.065L179.184 299.637L182.095 272.159Z" fill="#EB5733"/>
<path d="M106.388 325.237L160.424 263.984L182.675 271.792L179.683 300.038L106.388 325.24V325.237ZM160.754 265.24L109.894 322.892L178.684 299.238L181.514 272.523L160.754 265.237V265.24Z" fill="black"/>
<path d="M303.389 214.403L282.109 238.406C270.477 251.54 255.769 261.567 239.309 267.614L189.523 285.885C176.45 290.679 162.193 289.529 150.465 283.26C144.49 280.057 139.168 275.526 135.001 269.771C133.837 268.171 132.737 266.447 131.709 264.61C131.362 263.975 131.048 263.363 130.73 262.736C121.191 243.729 126.265 220.615 142.18 206.531C148.45 201.001 154.705 195.456 160.974 189.926C160.985 189.909 161 189.909 161 189.909V189.894C167.962 183.749 174.922 177.586 181.899 171.424C195.039 159.789 210.881 151.61 227.971 147.611L259.18 140.305C267.269 148.734 276.902 160.314 285.803 175.34C294.434 189.909 299.881 203.502 303.384 214.403H303.389Z" fill="url(#paint0_linear_483_7048)"/>
<path d="M172.877 289.388C165.025 289.388 157.234 287.488 150.216 283.736C143.964 280.384 138.7 275.792 134.57 270.086C133.406 268.489 132.289 266.733 131.243 264.873C130.891 264.226 130.574 263.608 130.253 262.979C120.717 243.971 125.477 220.594 141.827 206.126C144.978 203.348 148.123 200.567 151.268 197.786C154.34 195.069 157.413 192.354 160.488 189.64L160.676 189.426L160.731 189.415C164.953 185.689 169.172 181.958 173.394 178.224L181.546 171.019C194.7 159.373 210.713 151.096 227.852 147.085L259.358 139.71L259.572 139.932C269.778 150.568 278.762 162.388 286.27 175.065C293.579 187.402 299.511 200.582 303.9 214.238L303.995 214.53L282.513 238.764C270.872 251.907 256 262.058 239.496 268.119L189.71 286.39C184.249 288.392 178.549 289.385 172.874 289.385L172.877 289.388ZM161.242 190.414C158.152 193.14 155.068 195.866 151.981 198.595C148.836 201.376 145.691 204.157 142.541 206.935C126.557 221.077 121.899 243.925 131.215 262.494C131.527 263.115 131.838 263.721 132.185 264.351C133.204 266.17 134.302 267.888 135.439 269.453C139.474 275.027 144.614 279.512 150.722 282.786C162.536 289.102 176.611 290.049 189.338 285.38L239.123 267.108C255.46 261.107 270.185 251.061 281.704 238.051L302.78 214.276C298.425 200.801 292.557 187.795 285.343 175.614C277.927 163.095 269.067 151.42 259.006 140.899L228.098 148.136C211.132 152.107 195.281 160.3 182.26 171.828L174.107 179.033C169.932 182.727 165.756 186.414 161.583 190.099L161.623 190.345L161.239 190.411L161.242 190.414Z" fill="black"/>
<path d="M312.707 158.613C303.51 143.195 286.041 135.112 269.52 138.636L259.465 140.778C267.222 148.812 276.367 159.725 284.88 173.792C293.971 188.806 299.574 202.84 303.103 213.935C305.323 211.325 307.544 208.717 309.765 206.106C320.712 193.241 321.902 174.031 312.705 158.613H312.707Z" fill="#EB5733"/>
<path d="M302.886 215.024L302.592 214.1C298.139 200.1 292.025 186.631 284.422 174.072C277.24 162.212 268.715 151.137 259.078 141.154L258.402 140.455L269.405 138.11C286.224 134.526 303.81 142.655 313.167 158.339C322.523 174.023 321.322 193.362 310.175 206.459L302.883 215.027L302.886 215.024ZM260.525 141.102C269.942 150.958 278.288 161.856 285.343 173.512C292.822 185.869 298.869 199.098 303.322 212.849L309.358 205.757C320.204 193.013 321.365 174.176 312.246 158.888C303.126 143.6 286.001 135.67 269.633 139.161L260.525 141.102Z" fill="black"/>
<path d="M235.156 247.133C254.07 247.133 269.402 231.801 269.402 212.887C269.402 193.973 254.07 178.64 235.156 178.64C216.242 178.64 200.909 193.973 200.909 212.887C200.909 231.801 216.242 247.133 235.156 247.133Z" fill="black"/>
<path d="M232.374 240.78C251.288 240.78 266.621 225.448 266.621 206.534C266.621 187.62 251.288 172.287 232.374 172.287C213.461 172.287 198.128 187.62 198.128 206.534C198.128 225.448 213.461 240.78 232.374 240.78Z" fill="#EB5733"/>
<path d="M232.435 241.332C229.573 241.332 226.697 240.977 223.85 240.257C214.84 237.982 207.259 232.333 202.497 224.351C197.738 216.372 196.369 207.016 198.645 198.006C200.92 188.996 206.569 181.415 214.551 176.656C222.53 171.897 231.886 170.528 240.896 172.804C249.903 175.08 257.487 180.728 262.249 188.71C267.008 196.689 268.377 206.046 266.101 215.056C263.826 224.066 258.177 231.646 250.195 236.405C244.737 239.663 238.632 241.332 232.435 241.332ZM232.317 172.83C226.446 172.83 220.503 174.361 215.102 177.58C199.139 187.102 193.9 207.836 203.421 223.8C208.033 231.533 215.383 237.006 224.112 239.212C232.842 241.418 241.907 240.093 249.641 235.481C257.374 230.869 262.847 223.52 265.053 214.79C267.259 206.06 265.934 196.995 261.322 189.262C255.021 178.698 243.807 172.83 232.317 172.83Z" fill="black"/>
<path d="M232.374 231.334C246.071 231.334 257.174 220.231 257.174 206.534C257.174 192.837 246.071 181.733 232.374 181.733C218.677 181.733 207.573 192.837 207.573 206.534C207.573 220.231 218.677 231.334 232.374 231.334Z" fill="#FBFBFB"/>
<path d="M232.418 231.88C230.335 231.88 228.236 231.62 226.165 231.097C219.604 229.44 214.08 225.325 210.615 219.511C207.146 213.698 206.15 206.883 207.81 200.322C209.468 193.761 213.583 188.236 219.396 184.771C231.395 177.612 246.981 181.551 254.137 193.55C261.293 205.549 257.354 221.134 245.358 228.29C241.381 230.661 236.934 231.877 232.423 231.877L232.418 231.88ZM232.334 182.276C228.109 182.276 223.832 183.379 219.945 185.695C214.38 189.016 210.441 194.304 208.853 200.588C207.265 206.871 208.218 213.395 211.539 218.96C214.86 224.525 220.147 228.464 226.428 230.052C232.712 231.64 239.236 230.687 244.8 227.366C256.288 220.513 260.06 205.592 253.207 194.102C248.67 186.498 240.602 182.276 232.331 182.276H232.334Z" fill="black"/>
<path d="M307.013 208.858C303.767 195.849 298.667 183.397 291.857 171.854C284.811 159.907 276.041 149.107 265.786 139.75L266.511 138.956C276.844 148.385 285.683 159.269 292.784 171.308C299.646 182.94 304.783 195.488 308.055 208.599L307.01 208.858H307.013Z" fill="black"/>
<path d="M138.176 243.197L154.437 251.43L151.853 268.665L78.3232 295.137L138.176 243.197Z" fill="#EB5733"/>
<path d="M75.791 296.619L138.098 242.55L155.03 251.124L152.338 269.058L75.791 296.616V296.619ZM138.257 243.841L80.8562 293.653L151.371 268.266L153.851 251.736L138.26 243.841H138.257Z" fill="black"/>
<path d="M196.276 283.699C174.93 266.103 163.321 244.22 157.343 228.963C150.865 212.431 149.413 199.874 149.398 199.747L150.47 199.629C150.484 199.753 151.925 212.194 158.359 228.602C164.291 243.732 175.805 265.428 196.964 282.867L196.279 283.699H196.276Z" fill="black"/>
<path d="M154.166 221.348C156.503 221.348 158.397 219.454 158.397 217.117C158.397 214.781 156.503 212.887 154.166 212.887C151.83 212.887 149.936 214.781 149.936 217.117C149.936 219.454 151.83 221.348 154.166 221.348Z" fill="black"/>
<path d="M176.649 268.925C178.985 268.925 180.879 267.031 180.879 264.694C180.879 262.358 178.985 260.463 176.649 260.463C174.312 260.463 172.418 262.358 172.418 264.694C172.418 267.031 174.312 268.925 176.649 268.925Z" fill="black"/>
<path d="M276.859 292.227C274.248 293.209 271.568 293.676 268.935 293.676C259.959 293.676 251.504 288.262 248.024 279.442C247.981 279.335 247.937 279.223 247.894 279.11L230.313 232.463C225.935 220.84 231.806 207.874 243.424 203.49C255.047 199.112 268.013 204.983 272.391 216.606L289.972 263.259C290.048 263.453 290.117 263.646 290.177 263.84C294.148 275.307 288.286 287.921 276.862 292.227H276.859Z" fill="#01257F"/>
<path d="M268.932 294.213C259.416 294.213 251.013 288.493 247.521 279.639C247.478 279.535 247.435 279.422 247.389 279.304L229.805 232.651C225.331 220.774 231.353 207.467 243.227 202.985C248.983 200.816 255.238 201.018 260.84 203.556C266.442 206.092 270.719 210.66 272.888 216.416L290.469 263.071C290.547 263.271 290.619 263.473 290.683 263.678C294.792 275.538 288.803 288.305 277.043 292.732C274.421 293.717 271.692 294.216 268.929 294.216L268.932 294.213ZM251.359 202.572C248.746 202.572 246.129 203.045 243.611 203.992C232.291 208.264 226.553 220.95 230.815 232.273L248.396 278.92C248.437 279.024 248.48 279.133 248.521 279.234C251.853 287.681 259.864 293.133 268.932 293.133C271.565 293.133 274.167 292.657 276.668 291.718C287.876 287.496 293.585 275.327 289.663 264.013C289.6 263.816 289.536 263.634 289.464 263.45L271.88 216.791C269.812 211.304 265.735 206.952 260.395 204.532C257.507 203.224 254.435 202.569 251.356 202.569L251.359 202.572Z" fill="black"/>
<path d="M276.858 292.226C274.247 293.208 271.568 293.676 268.934 293.676C259.959 293.676 251.503 288.261 248.023 279.442L247.636 276.762C245.857 264.472 254.376 253.068 266.667 251.292C276.647 249.848 286.047 255.196 290.174 263.839C294.144 275.307 288.282 287.921 276.858 292.226Z" fill="black"/>
<path d="M272.65 260.647L266.522 261.533C255.924 263.066 248.576 272.9 250.108 283.498L258.131 338.967C259.664 349.565 269.498 356.914 280.096 355.381L286.224 354.495C296.821 352.962 304.17 343.128 302.637 332.53L294.614 277.061C293.082 266.463 283.248 259.114 272.65 260.647Z" fill="#01257F"/>
<path d="M277.332 356.096C267.597 356.096 259.058 348.932 257.622 339.021L249.594 283.554C248.832 278.287 250.166 273.037 253.351 268.772C256.536 264.506 261.195 261.74 266.462 260.977L272.587 260.091C283.46 258.517 293.59 266.083 295.164 276.959L303.192 332.425C304.766 343.3 297.2 353.428 286.324 355.002L280.199 355.888C279.238 356.027 278.279 356.096 277.332 356.096ZM275.455 260.96C274.559 260.96 273.655 261.024 272.743 261.157L266.618 262.043C261.633 262.765 257.23 265.384 254.218 269.419C251.203 273.453 249.941 278.417 250.663 283.401L258.691 338.867C260.178 349.154 269.76 356.307 280.049 354.826L286.174 353.939C296.46 352.449 303.619 342.87 302.132 332.581L294.104 277.115C292.747 267.738 284.667 260.96 275.46 260.96H275.455Z" fill="black"/>
<path d="M366.063 506.384L365.976 507.602L361.598 567.527H262.838L267.236 507.403L267.311 506.387C269.029 482.897 289.464 463.855 312.953 463.855H326.638C350.134 463.855 367.784 482.897 366.066 506.387L366.063 506.384Z" fill="#01257F"/>
<path d="M362.098 568.067H262.258L266.771 506.346C268.507 482.62 289.221 463.315 312.95 463.315H326.633C338.126 463.315 348.612 467.785 356.161 475.906C363.736 484.055 367.441 494.893 366.597 506.424L366.511 507.64L362.095 568.067H362.098ZM263.416 566.99H361.096L365.526 506.346C366.346 495.116 362.742 484.566 355.372 476.639C348.032 468.741 337.826 464.392 326.633 464.392H312.95C289.773 464.392 269.541 483.247 267.846 506.424L267.771 507.441L263.416 566.987V566.99Z" fill="black"/>
<path d="M366.063 506.384L365.976 507.602C356.065 523.341 338.802 534.063 318.81 534.803C297.206 535.597 277.915 524.516 267.233 507.403L267.308 506.387C269.027 482.897 289.461 463.855 312.95 463.855H326.636C350.131 463.855 367.781 482.897 366.063 506.387V506.384Z" fill="black"/>
<path d="M316.67 515.578C345.938 515.578 369.664 491.852 369.664 462.584C369.664 433.316 345.938 409.59 316.67 409.59C287.402 409.59 263.676 433.316 263.676 462.584C263.676 491.852 287.402 515.578 316.67 515.578Z" fill="#EB5733"/>
<path d="M316.644 516.118C288.026 516.118 264.23 493.386 263.171 464.551C262.085 435.052 285.202 410.17 314.701 409.085C344.211 408.002 369.081 431.116 370.167 460.615C371.253 490.114 348.136 514.995 318.637 516.081C317.97 516.107 317.305 516.118 316.644 516.118ZM316.696 410.127C316.046 410.127 315.397 410.139 314.744 410.162C285.84 411.225 263.188 435.606 264.251 464.51C265.313 493.415 289.695 516.04 318.599 515.004C347.503 513.941 370.155 489.559 369.093 460.655C368.053 432.404 344.737 410.124 316.696 410.124V410.127Z" fill="black"/>
<path d="M386.361 424.797V424.803C384.501 447.44 371.876 467.635 352.729 477.601C333.794 487.466 313.447 483.322 305.335 481.439C304.321 481.202 303.31 480.951 302.32 480.673C244.021 464.857 219.682 391.504 216.69 382.072C224.574 371.277 256.632 330.031 313.207 320.27C340.321 315.597 363.166 319.857 377.227 323.802C380.054 351.77 382.884 379.736 385.705 407.704C386.624 413.471 386.823 419.206 386.358 424.797H386.361Z" fill="#01257F"/>
<path d="M325.42 484.433C319.058 484.433 312.315 483.61 305.214 481.961C304.032 481.684 303.068 481.442 302.176 481.193C245.289 465.758 220.557 396.052 216.177 382.234L216.093 381.974L216.254 381.754C227.635 366.169 259.858 328.928 313.115 319.739C334.334 316.083 355.955 317.275 377.371 323.282L377.724 323.38L377.906 325.188C380.687 352.677 383.465 380.16 386.24 407.649C387.138 413.283 387.363 419.024 386.907 424.687L387.005 424.884L386.881 425.028C384.943 447.879 371.965 468.195 352.975 478.08C344.849 482.314 335.628 484.436 325.417 484.436L325.42 484.433ZM217.285 382.17C221.857 396.485 246.458 464.961 302.459 480.156C303.339 480.402 304.289 480.642 305.456 480.916C323.701 485.152 339.521 483.876 352.478 477.127C371.087 467.441 383.826 447.542 385.789 425.138L385.821 424.757C386.286 419.128 386.069 413.422 385.171 407.791C382.393 380.27 379.615 352.79 376.834 325.298L376.724 324.22C355.577 318.344 334.236 317.192 313.294 320.798C260.672 329.878 228.727 366.562 217.283 382.167L217.285 382.17Z" fill="black"/>
<path d="M386.362 424.797V424.803C384.502 447.441 371.876 467.635 352.73 477.601C333.795 487.466 313.447 483.322 305.335 481.439C304.322 481.202 303.311 480.951 302.321 480.673C292.291 462.544 290.322 440.074 297.247 420.526C299.274 414.805 303.554 404.987 313.86 398.166C329.189 388.024 346.516 392.48 349.66 393.285C366.788 397.689 376.765 410.632 381.169 416.807C383.015 419.394 384.739 422.068 386.362 424.797Z" fill="url(#paint1_linear_483_7048)"/>
<path d="M325.42 484.433C319.058 484.433 312.315 483.61 305.214 481.961C304.033 481.684 303.068 481.442 302.176 481.193L301.959 481.133L301.849 480.936C291.704 462.599 289.796 439.947 296.738 420.347C300.319 410.243 305.82 402.841 313.562 397.718C327.069 388.78 342.059 390.779 349.793 392.766C368.032 397.455 378.249 411.788 381.608 416.498C383.306 418.88 385.004 421.482 386.653 424.234H386.682L387.011 424.884L386.887 425.028C384.949 447.879 371.971 468.195 352.981 478.08C344.855 482.314 335.634 484.436 325.423 484.436L325.42 484.433ZM302.681 480.217C303.498 480.442 304.388 480.665 305.456 480.916C323.701 485.152 339.524 483.876 352.478 477.127C371.145 467.41 383.907 447.42 385.81 424.93C384.149 422.149 382.44 419.524 380.727 417.124C377.426 412.495 367.38 398.403 349.524 393.811C341.964 391.867 327.314 389.909 314.154 398.616C306.614 403.606 301.249 410.832 297.752 420.708C290.933 439.952 292.779 462.18 302.681 480.217Z" fill="black"/>
<path d="M364.55 341.036C374.79 341.036 383.09 332.736 383.09 322.497C383.09 312.257 374.79 303.957 364.55 303.957C354.311 303.957 346.011 312.257 346.011 322.497C346.011 332.736 354.311 341.036 364.55 341.036Z" fill="#EB5733"/>
<path d="M364.533 341.576C359.701 341.576 355.121 339.78 351.564 336.474C347.83 333.005 345.67 328.289 345.482 323.198C345.095 312.687 353.334 303.818 363.848 303.431C374.343 303.038 383.228 311.283 383.615 321.795C383.803 326.889 381.995 331.749 378.527 335.483C375.059 339.217 370.343 341.377 365.252 341.562C365.012 341.571 364.772 341.576 364.533 341.576ZM364.559 304.494C364.336 304.494 364.114 304.497 363.889 304.505C353.969 304.869 346.195 313.238 346.562 323.158C346.738 327.963 348.777 332.413 352.3 335.685C355.823 338.957 360.412 340.67 365.214 340.488C370.02 340.311 374.467 338.273 377.742 334.75C381.014 331.226 382.72 326.641 382.541 321.835C382.186 312.141 374.184 304.494 364.559 304.494Z" fill="black"/>
<path d="M338.776 339.263C349.015 339.263 357.316 330.963 357.316 320.723C357.316 310.484 349.015 302.184 338.776 302.184C328.537 302.184 320.236 310.484 320.236 320.723C320.236 330.963 328.537 339.263 338.776 339.263Z" fill="#EB5733"/>
<path d="M338.758 339.803C333.927 339.803 329.347 338.007 325.789 334.7C322.055 331.232 319.895 326.516 319.71 321.425C319.323 310.914 327.562 302.045 338.074 301.658C348.568 301.268 357.454 309.51 357.841 320.022C358.029 325.116 356.221 329.976 352.753 333.71C349.284 337.444 344.569 339.604 339.477 339.789C339.238 339.797 338.998 339.803 338.758 339.803ZM338.784 302.721C338.562 302.721 338.34 302.724 338.114 302.732C328.195 303.096 320.421 311.465 320.788 321.385C320.964 326.19 323.002 330.64 326.526 333.912C330.049 337.184 334.637 338.896 339.44 338.714C344.245 338.538 348.692 336.5 351.967 332.976C355.239 329.453 356.946 324.867 356.767 320.062C356.412 310.368 348.409 302.721 338.784 302.721Z" fill="black"/>
<path d="M307.351 342.604C317.591 342.604 325.891 334.304 325.891 324.065C325.891 313.825 317.591 305.525 307.351 305.525C297.112 305.525 288.812 313.825 288.812 324.065C288.812 334.304 297.112 342.604 307.351 342.604Z" fill="#EB5733"/>
<path d="M307.334 343.144C302.502 343.144 297.922 341.348 294.364 338.042C290.63 334.573 288.47 329.858 288.286 324.766C287.899 314.255 296.138 305.386 306.649 304.999C317.146 304.598 326.029 312.851 326.416 323.363C326.604 328.457 324.796 333.317 321.328 337.051C317.86 340.785 313.144 342.945 308.053 343.13C307.813 343.139 307.573 343.144 307.334 343.144ZM307.36 306.062C307.137 306.062 306.915 306.065 306.69 306.074C296.77 306.438 288.996 314.806 289.363 324.726C289.539 329.531 291.578 333.981 295.101 337.253C298.624 340.525 303.21 342.229 308.015 342.056C312.82 341.88 317.268 339.841 320.542 336.318C323.814 332.795 325.521 328.209 325.342 323.403C324.987 313.709 316.985 306.062 307.36 306.062Z" fill="black"/>
<path d="M274.69 352.853C284.929 352.853 293.23 344.553 293.23 334.313C293.23 324.074 284.929 315.774 274.69 315.774C264.451 315.774 256.15 324.074 256.15 334.313C256.15 344.553 264.451 352.853 274.69 352.853Z" fill="#EB5733"/>
<path d="M274.684 353.393C264.484 353.393 256.006 345.29 255.628 335.015C255.44 329.921 257.248 325.061 260.716 321.327C264.184 317.593 268.9 315.433 273.991 315.248C279.082 315.057 283.945 316.868 287.679 320.336C291.413 323.805 293.573 328.52 293.758 333.612C294.145 344.123 285.906 352.992 275.395 353.379C275.158 353.387 274.921 353.393 274.684 353.393ZM274.707 316.314C274.482 316.314 274.257 316.317 274.029 316.325C269.223 316.501 264.776 318.54 261.501 322.063C258.229 325.586 256.523 330.172 256.702 334.978C257.057 344.672 265.059 352.316 274.684 352.319C274.907 352.319 275.129 352.316 275.354 352.307C285.274 351.943 293.048 343.575 292.681 333.655C292.505 328.85 290.466 324.399 286.943 321.128C283.587 318.009 279.264 316.314 274.707 316.314Z" fill="black"/>
<path d="M215.508 397.583C225.747 397.583 234.047 389.282 234.047 379.043C234.047 368.804 225.747 360.503 215.508 360.503C205.268 360.503 196.968 368.804 196.968 379.043C196.968 389.282 205.268 397.583 215.508 397.583Z" fill="#EB5733"/>
<path d="M215.49 398.123C210.659 398.123 206.078 396.326 202.521 393.02C198.787 389.552 196.627 384.836 196.442 379.745C196.055 369.233 204.294 360.364 214.805 359.978C225.311 359.593 234.186 367.829 234.572 378.341C234.76 383.435 232.952 388.295 229.484 392.029C226.016 395.763 221.3 397.923 216.209 398.108C215.969 398.117 215.73 398.123 215.49 398.123ZM215.516 361.043C215.293 361.043 215.071 361.046 214.846 361.055C204.926 361.419 197.152 369.787 197.519 379.707C197.695 384.512 199.734 388.962 203.257 392.234C206.78 395.506 211.366 397.216 216.171 397.037C220.977 396.861 225.424 394.822 228.699 391.299C231.971 387.776 233.677 383.19 233.501 378.384C233.146 368.69 225.144 361.043 215.519 361.043H215.516Z" fill="black"/>
<path d="M315.041 341.006L314.001 341.287L327.826 392.491L328.866 392.21L315.041 341.006Z" fill="black"/>
<path d="M381.862 372.349C353.443 359.232 322.558 369.603 322.249 369.706L321.899 368.687C322.211 368.577 353.495 358.066 382.315 371.367L381.865 372.346L381.862 372.349Z" fill="black"/>
<path d="M350.813 113.324L339.764 109.339L328.724 113.338C325.92 114.349 323.202 111.64 324.216 108.836L328.21 97.7934L324.207 86.7417C323.194 83.9463 325.903 81.2289 328.704 82.2425L339.758 86.2334L350.798 82.2338C353.594 81.2202 356.311 83.929 355.298 86.7301L351.312 97.7789L355.309 108.828C356.323 111.623 353.614 114.34 350.813 113.327V113.324Z" fill="#0EE1FE"/>
<path d="M327.511 114.089C326.457 114.089 325.431 113.673 324.652 112.894C323.531 111.77 323.167 110.144 323.707 108.654L327.635 97.7932L323.699 86.9235C323.156 85.4305 323.517 83.8047 324.64 82.6813C325.764 81.558 327.389 81.1941 328.885 81.7341L339.758 85.6587L350.616 81.7255C352.109 81.1854 353.735 81.5464 354.861 82.6669C355.984 83.7902 356.348 85.4161 355.805 86.912L351.887 97.7759L355.817 108.643C356.36 110.136 355.996 111.762 354.876 112.885C353.752 114.008 352.126 114.369 350.63 113.829L339.767 109.91L328.908 113.844C328.449 114.008 327.978 114.089 327.514 114.089H327.511ZM327.496 82.5658C326.725 82.5658 325.977 82.869 325.405 83.4408C324.579 84.2667 324.317 85.4594 324.712 86.5568L328.781 97.7932L324.721 109.021C324.32 110.133 324.577 111.297 325.414 112.134C326.24 112.963 327.438 113.229 328.539 112.833L339.764 108.767L350.994 112.819C352.092 113.217 353.284 112.951 354.11 112.125C354.936 111.3 355.199 110.107 354.803 109.009L350.74 97.7759L354.792 86.5452C355.19 85.4478 354.922 84.2552 354.099 83.4293C353.273 82.6034 352.08 82.3377 350.983 82.7362L339.758 86.8022L328.518 82.7449C328.181 82.6236 327.837 82.5629 327.493 82.5629L327.496 82.5658Z" fill="black"/>
<path d="M128.197 398.642L117.148 394.657L106.108 398.657C103.304 399.668 100.586 396.959 101.6 394.155L105.594 383.112L101.591 372.06C100.578 369.265 103.286 366.547 106.088 367.561L117.142 371.552L128.182 367.552C130.978 366.539 133.695 369.247 132.681 372.048L128.696 383.097L132.693 394.146C133.707 396.941 130.998 399.659 128.197 398.645V398.642Z" fill="#0EE1FE"/>
<path d="M104.895 399.407C103.841 399.407 102.816 398.992 102.036 398.212C100.915 397.089 100.552 395.463 101.092 393.973L105.019 383.112L101.083 372.242C100.54 370.749 100.904 369.123 102.024 367.997C103.148 366.873 104.774 366.51 106.269 367.052L117.142 370.977L128 367.044C129.493 366.504 131.119 366.865 132.242 367.985C133.366 369.109 133.73 370.734 133.19 372.23L129.271 383.094L133.201 393.958C133.744 395.451 133.38 397.077 132.257 398.203C131.134 399.327 129.508 399.691 128.015 399.148L117.151 395.229L106.293 399.162C105.833 399.327 105.363 399.407 104.898 399.407H104.895ZM104.88 367.884C104.109 367.884 103.361 368.187 102.79 368.759C101.964 369.585 101.701 370.778 102.097 371.875L106.165 383.112L102.105 394.339C101.704 395.451 101.961 396.615 102.798 397.452C103.624 398.281 104.823 398.547 105.923 398.151L117.148 394.085L128.379 398.137C129.476 398.535 130.669 398.267 131.494 397.444C132.32 396.618 132.583 395.425 132.188 394.328L128.124 383.097L132.176 371.866C132.575 370.769 132.306 369.574 131.483 368.751C130.657 367.925 129.464 367.659 128.367 368.057L117.142 372.123L105.903 368.066C105.565 367.945 105.221 367.884 104.878 367.884H104.88Z" fill="black"/>
<path d="M291.415 112.92C295.198 112.92 298.265 109.853 298.265 106.07C298.265 102.287 295.198 99.2197 291.415 99.2197C287.632 99.2197 284.565 102.287 284.565 106.07C284.565 109.853 287.632 112.92 291.415 112.92Z" fill="#01257F"/>
<path d="M291.415 113.457C287.344 113.457 284.028 110.141 284.028 106.07C284.028 101.998 287.344 98.6826 291.415 98.6826C295.487 98.6826 298.802 101.995 298.802 106.07C298.802 110.144 295.487 113.457 291.415 113.457ZM291.415 99.7598C287.936 99.7598 285.105 102.59 285.105 106.07C285.105 109.549 287.936 112.38 291.415 112.38C294.895 112.38 297.725 109.549 297.725 106.07C297.725 102.59 294.895 99.7598 291.415 99.7598Z" fill="black"/>
<path d="M381.441 218.05C384.292 218.05 386.604 215.738 386.604 212.887C386.604 210.035 384.292 207.723 381.441 207.723C378.589 207.723 376.277 210.035 376.277 212.887C376.277 215.738 378.589 218.05 381.441 218.05Z" fill="#01257F"/>
<path d="M381.441 218.587C378.299 218.587 375.74 216.029 375.74 212.887C375.74 209.745 378.299 207.186 381.441 207.186C384.583 207.186 387.141 209.745 387.141 212.887C387.141 216.029 384.583 218.587 381.441 218.587ZM381.441 208.263C378.891 208.263 376.817 210.337 376.817 212.887C376.817 215.437 378.891 217.51 381.441 217.51C383.991 217.51 386.064 215.437 386.064 212.887C386.064 210.337 383.991 208.263 381.441 208.263Z" fill="black"/>
<path d="M92.9744 416.405C96.7399 416.405 99.7925 413.353 99.7925 409.587C99.7925 405.822 96.7399 402.769 92.9744 402.769C89.2088 402.769 86.1562 405.822 86.1562 409.587C86.1562 413.353 89.2088 416.405 92.9744 416.405Z" fill="#01257F"/>
<path d="M92.9744 416.945C88.917 416.945 85.6162 413.645 85.6162 409.587C85.6162 405.53 88.917 402.229 92.9744 402.229C97.0317 402.229 100.332 405.53 100.332 409.587C100.332 413.645 97.0317 416.945 92.9744 416.945ZM92.9744 403.306C89.5119 403.306 86.6934 406.125 86.6934 409.587C86.6934 413.05 89.5119 415.868 92.9744 415.868C96.4368 415.868 99.2554 413.05 99.2554 409.587C99.2554 406.125 96.4368 403.306 92.9744 403.306Z" fill="black"/>
<path d="M346.009 466.997C349.853 466.997 352.969 463.881 352.969 460.037C352.969 456.193 349.853 453.077 346.009 453.077C342.166 453.077 339.05 456.193 339.05 460.037C339.05 463.881 342.166 466.997 346.009 466.997Z" fill="#FBFBFB"/>
<path d="M346.009 467.537C341.874 467.537 338.51 464.172 338.51 460.04C338.51 455.907 341.874 452.54 346.009 452.54C350.145 452.54 353.509 455.905 353.509 460.04C353.509 464.175 350.145 467.537 346.009 467.537ZM346.009 453.617C342.469 453.617 339.59 456.497 339.59 460.04C339.59 463.583 342.469 466.46 346.009 466.46C349.55 466.46 352.429 463.58 352.429 460.04C352.429 456.499 349.55 453.617 346.009 453.617Z" fill="black"/>
<path d="M161.236 598.921C163.686 598.921 165.672 596.935 165.672 594.485C165.672 592.035 163.686 590.049 161.236 590.049C158.787 590.049 156.801 592.035 156.801 594.485C156.801 596.935 158.787 598.921 161.236 598.921Z" fill="black"/>
<path d="M172.905 598.921C175.355 598.921 177.341 596.935 177.341 594.485C177.341 592.035 175.355 590.049 172.905 590.049C170.456 590.049 168.47 592.035 168.47 594.485C168.47 596.935 170.456 598.921 172.905 598.921Z" fill="black"/>
<path d="M135.775 598.921C138.224 598.921 140.21 596.935 140.21 594.485C140.21 592.035 138.224 590.049 135.775 590.049C133.325 590.049 131.339 592.035 131.339 594.485C131.339 596.935 133.325 598.921 135.775 598.921Z" fill="black"/>
<path d="M147.443 598.921C149.893 598.921 151.879 596.935 151.879 594.485C151.879 592.035 149.893 590.049 147.443 590.049C144.994 590.049 143.008 592.035 143.008 594.485C143.008 596.935 144.994 598.921 147.443 598.921Z" fill="black"/>
<path d="M237.835 33.2736C246.196 33.2736 252.973 26.4961 252.973 18.1357C252.973 9.77527 246.196 2.9978 237.835 2.9978C229.475 2.9978 222.697 9.77527 222.697 18.1357C222.697 26.4961 229.475 33.2736 237.835 33.2736Z" fill="black"/>
<path d="M255.084 590.97H220.959C219.961 590.97 219.151 591.78 219.151 592.778V596.186C219.151 597.184 219.961 597.994 220.959 597.994H255.084C256.083 597.994 256.892 597.184 256.892 596.186V592.778C256.892 591.78 256.083 590.97 255.084 590.97Z" fill="black"/>
<defs>
<linearGradient id="paint0_linear_483_7048" x1="214.655" y1="140.305" x2="214.655" y2="288.841" gradientUnits="userSpaceOnUse">
<stop stop-color="#FAE11D"/>
<stop offset="0.456731" stop-color="#F28C38"/>
<stop offset="1" stop-color="#EB5733"/>
</linearGradient>
<linearGradient id="paint1_linear_483_7048" x1="339.757" y1="391.619" x2="339.757" y2="483.926" gradientUnits="userSpaceOnUse">
<stop stop-color="#FAE11D"/>
<stop offset="0.456731" stop-color="#F28C38"/>
<stop offset="1" stop-color="#EB5733"/>
</linearGradient>
</defs>
</svg>
