<svg width="130" height="136" viewBox="0 0 130 136" fill="none" xmlns="http://www.w3.org/2000/svg">
<path fill-rule="evenodd" clip-rule="evenodd" d="M76.6018 1.03396C74.0869 3.03611e-07 70.8982 0 64.5208 0C58.1434 0 54.9548 3.03611e-07 52.4398 1.03396C49.0861 2.4126 46.4216 5.05694 45.0325 8.3852C44.3984 9.90456 44.1502 11.6715 44.0531 14.2488C43.9104 18.0365 41.9532 21.5424 38.6457 23.4376C35.3382 25.3326 31.3003 25.2619 27.9239 23.4907C25.6262 22.2855 23.9602 21.6153 22.3173 21.4007C18.7184 20.9304 15.0787 21.8983 12.1989 24.0914C10.039 25.7362 8.44468 28.4768 5.25606 33.9579C2.06744 39.439 0.47316 42.1795 0.11782 44.8583C-0.356035 48.43 0.619248 52.0422 2.82905 54.9004C3.83768 56.2051 5.25517 57.3013 7.4552 58.6732C10.6895 60.6903 12.7705 64.1262 12.7703 67.9167C12.7701 71.7071 10.6891 75.1423 7.4552 77.1588C5.25483 78.5314 3.83707 79.6282 2.82837 80.9329C0.61857 83.7908 -0.356645 87.4026 0.117141 90.9744C0.472481 93.653 2.06682 96.3941 5.25538 101.875C8.44399 107.356 10.0383 110.097 12.1982 111.741C15.078 113.934 18.7178 114.902 22.3167 114.432C23.9595 114.217 25.6253 113.547 27.9228 112.342C31.2995 110.571 35.3377 110.5 38.6454 112.395C41.9531 114.291 43.9104 117.797 44.0531 121.585C44.1502 124.162 44.3984 125.929 45.0325 127.448C46.4216 130.776 49.0861 133.421 52.4398 134.8C54.9548 135.833 58.1434 135.833 64.5208 135.833C70.8982 135.833 74.0869 135.833 76.6018 134.8C79.9556 133.421 82.6199 130.776 84.0088 127.448C84.6432 125.929 84.8917 124.162 84.9889 121.584C85.1315 117.797 87.0882 114.291 90.3957 112.395C93.7032 110.5 97.7416 110.571 101.118 112.342C103.416 113.547 105.081 114.217 106.724 114.431C110.323 114.902 113.963 113.934 116.842 111.741C119.003 110.096 120.597 107.356 123.786 101.874C126.974 96.3935 128.568 93.653 128.924 90.9744C129.398 87.4026 128.422 83.7902 126.213 80.9322C125.204 79.6275 123.786 78.5307 121.586 77.1588C118.352 75.1423 116.271 71.7064 116.271 67.916C116.271 64.1256 118.352 60.691 121.586 58.6746C123.787 57.302 125.204 56.2058 126.214 54.9004C128.423 52.0427 129.398 48.4305 128.925 44.8588C128.569 42.18 126.975 39.4394 123.786 33.9583C120.598 28.4773 119.004 25.7367 116.843 24.0919C113.963 21.8988 110.324 20.9309 106.725 21.4012C105.082 21.6158 103.416 22.2859 101.119 23.491C97.7423 25.2622 93.7039 25.3331 90.3964 23.4378C87.0889 21.5426 85.1315 18.0364 84.9882 14.2485C84.8911 11.6713 84.6432 9.90449 84.0088 8.3852C82.6199 5.05694 79.9556 2.4126 76.6018 1.03396ZM64.5208 88.2917C75.8595 88.2917 85.0507 79.1698 85.0507 67.9167C85.0507 56.6636 75.8595 47.5417 64.5208 47.5417C53.1821 47.5417 43.9907 56.6636 43.9907 67.9167C43.9907 79.1698 53.1821 88.2917 64.5208 88.2917Z" fill="url(#paint0_linear_449_2927)"/>
<defs>
<linearGradient id="paint0_linear_449_2927" x1="64.5209" y1="0" x2="64.5209" y2="135.833" gradientUnits="userSpaceOnUse">
<stop stop-color="#0EE1FE"/>
<stop offset="0.5" stop-color="#2D6CC0"/>
<stop offset="1" stop-color="#01257F"/>
</linearGradient>
</defs>
</svg>
