<?xml version="1.0" encoding="UTF-8"?>
<svg id="Layer_2" data-name="Layer 2" xmlns="http://www.w3.org/2000/svg" xmlns:xlink="http://www.w3.org/1999/xlink" viewBox="0 0 538.71 113.38">
  <defs>
    <style>
      .cls-1 {
        fill: url(#linear-gradient-3);
      }

      .cls-2 {
        fill: url(#linear-gradient-2);
      }

      .cls-3 {
        fill: url(#linear-gradient);
      }

      .cls-4 {
        fill: #fff;
      }
    </style>
    <linearGradient id="linear-gradient" x1="280" y1="3.81" x2="280" y2="27.41" gradientUnits="userSpaceOnUse">
      <stop offset="0" stop-color="#fae11d"/>
      <stop offset=".46" stop-color="#f97d1f"/>
      <stop offset="1" stop-color="#eb5733"/>
    </linearGradient>
    <linearGradient id="linear-gradient-2" x1="384.98" y1="3.85" x2="384.98" y2="27.46" xlink:href="#linear-gradient"/>
    <linearGradient id="linear-gradient-3" x1="74.16" y1="0" x2="74.16" y2="44.1" xlink:href="#linear-gradient"/>
  </defs>
  <g id="Layer_1-2" data-name="Layer 1">
    <g>
      <path class="cls-4" d="M147.43,96.42l-30.72-66.03c-1.94-4.17-5.94-6.58-10.12-6.65,0,0,0,0-.01,0-.44,0-.87,0-1.3.05-3.98.23-7.74,2.55-9.64,6.5l-21.42,44.61-20.82-44.76c-.11-.25-.28-.45-.4-.68-.07-.14-.16-.27-.24-.4-.29-.47-.58-.93-.92-1.35-.21-.27-.45-.51-.68-.76-.25-.26-.49-.52-.76-.75-.39-.35-.82-.65-1.27-.95-.14-.09-.27-.19-.41-.27-.22-.13-.41-.3-.65-.42-5.66-2.9-12.53-.51-15.34,5.34L1.2,95.54c-2.81,5.85-.5,12.95,5.17,15.85,5.66,2.9,12.53.51,15.34-5.34l21.12-44,20.64,44.37c2.26,4.86,7.31,7.34,12.21,6.49.16-.02.31-.05.46-.07.23-.05.47-.1.7-.17,3.26-.75,6.18-2.91,7.78-6.24l21.36-44.49,20.81,44.73c2.74,5.89,9.58,8.37,15.28,5.54h0c5.7-2.83,8.1-9.9,5.36-15.79Z"/>
      <path class="cls-4" d="M215.78,79.17h-47.02c-1.67,0-2.83,1.81-2.16,3.42,2.88,7.04,9.62,11.23,18.77,11.23,6.51,0,11.39-1.81,15.74-5.54.95-.82,2.34-.71,3.17.24l7.66,8.75c.86.98.82,2.51-.08,3.45-6.39,6.59-15.49,10.05-27,10.05-23.94,0-39.51-15.87-39.51-37.57s15.83-37.57,36.93-37.57,36.03,14.38,36.03,37.84c0,.99-.1,2.24-.2,3.46-.11,1.27-1.12,2.24-2.33,2.24ZM168.26,66.82h28.16c1.6,0,2.73-1.66,2.23-3.25-2.32-7.35-8.34-11.94-16.23-11.94s-14.07,4.5-16.38,11.94c-.5,1.6.63,3.25,2.23,3.25Z"/>
      <path class="cls-4" d="M264.44,39.45v14.34c0,1.42-1.14,2.55-2.49,2.46-.66-.04-1.31-.07-2.01-.07-11.07,0-18.4,6.38-18.4,20.35v31.99c0,1.36-1.05,2.46-2.34,2.46h-15.4c-1.29,0-2.34-1.1-2.34-2.46V40.47c0-1.36,1.05-2.46,2.34-2.46h14.5c1.29,0,2.34,1.1,2.34,2.46v1c0,2.05,2.27,3.25,3.77,1.94,4.42-3.85,10.37-6.02,17.54-6.43,1.35-.08,2.49,1.05,2.49,2.47Z"/>
      <path class="cls-3" d="M267.52,15.61c0-6.65,5.02-11.8,12.48-11.8s12.48,4.88,12.48,11.39c0,7.05-5.02,12.21-12.48,12.21s-12.48-5.15-12.48-11.8Z"/>
      <path class="cls-4" d="M272.3,37.58h15.4c1.29,0,2.34,1.1,2.34,2.46v68.04c0,1.36-1.05,2.46-2.34,2.46h-15.4c-1.29,0-2.34-1.1-2.34-2.46V40.05c0-1.36,1.05-2.46,2.34-2.46Z"/>
      <path class="cls-4" d="M368.92,12.02v95.71c0,1.36-1.05,2.46-2.34,2.46h-14.5c-1.29,0-2.34-1.1-2.34-2.46v-.17c0-2.05-2.23-3.18-3.77-1.93-4.68,3.79-10.69,5.65-17.85,5.65-19.56,0-34.62-14.65-34.62-37.57s15.06-37.57,34.62-37.57c6.58,0,12.38,1.71,17,5.25,1.55,1.19,3.72.05,3.72-1.97V12.02c0-1.36,1.05-2.46,2.34-2.46h15.4c1.29,0,2.34,1.1,2.34,2.46ZM349.23,73.71c0-12.61-7.72-20.21-17.63-20.21s-17.76,7.6-17.76,20.21,7.72,20.21,17.76,20.21,17.63-7.6,17.63-20.21Z"/>
      <path class="cls-2" d="M372.5,15.66c0-6.65,5.02-11.8,12.48-11.8s12.48,4.88,12.48,11.39c0,7.05-5.02,12.21-12.48,12.21s-12.48-5.15-12.48-11.8Z"/>
      <path class="cls-4" d="M377.28,37.63h15.4c1.29,0,2.34,1.1,2.34,2.46v68.04c0,1.36-1.05,2.46-2.34,2.46h-15.4c-1.29,0-2.34-1.1-2.34-2.46V40.09c0-1.36,1.05-2.46,2.34-2.46Z"/>
      <path class="cls-4" d="M463.86,68.13v39.18c0,1.36-1.05,2.46-2.34,2.46h-14.11c-1.29,0-2.34-1.1-2.34-2.46h0c0-2.08-2.29-3.23-3.81-1.9-4.06,3.58-9.9,5.45-17.3,5.45-16.21,0-25.87-9.49-25.87-22.11s8.62-21.84,29.73-21.84h13.45c1.45,0,2.52-1.37,2.31-2.88-1.02-7.32-6.15-11.5-15.77-11.5-6.36,0-12.91,1.94-17.81,5.19-1.18.78-2.73.38-3.36-.93l-5.02-10.3c-.56-1.15-.18-2.56.87-3.24,7.5-4.88,17.82-7.54,28.03-7.54,21.1,0,33.33,10.31,33.33,32.42ZM443.78,86.22v-4.51c0-1.36-1.05-2.46-2.34-2.46h-11.43c-9.39,0-12.35,3.66-12.35,8.55,0,5.29,4.25,8.82,11.32,8.82,6.54,0,12.21-3.11,14.63-9.44.11-.3.17-.62.17-.94Z"/>
      <path class="cls-4" d="M538.71,68.17v39.11c0,1.47-1.13,2.66-2.52,2.66h-15.03c-1.39,0-2.52-1.19-2.52-2.66v-35.86c0-11.8-5.15-17.22-14.03-17.22-9.65,0-16.6,6.24-16.6,19.67v33.42c0,1.47-1.13,2.66-2.52,2.66h-15.03c-1.39,0-2.52-1.19-2.52-2.66V39.64c0-1.47,1.13-2.66,2.52-2.66h14.13c1.39,0,2.52,1.19,2.52,2.66h0c0,2.17,2.32,3.41,4,2.15,5.08-3.84,11.61-5.89,18.91-5.89,16.34,0,28.7,10.04,28.7,32.28Z"/>
      <path class="cls-1" d="M98.92,6.99l-20.69,34.83c-1.8,3.03-6.28,3.03-8.08,0L49.39,6.87c-2.2-3.7,1.55-8.06,5.66-6.58l13.72,4.94,4.06,19.31c.3,1.45,2.42,1.45,2.73,0l4.04-19.21L93.26.41c4.11-1.48,7.86,2.87,5.66,6.58Z"/>
    </g>
  </g>
</svg>