<svg width="179" height="165" viewBox="0 0 179 165" fill="none" xmlns="http://www.w3.org/2000/svg">
<path d="M128.869 38.5882C122.453 42.5914 122.97 49.4838 119.495 49.0254C116.514 48.6325 116.126 47.7558 114.237 43.3219L104.384 21.7307C102.58 16.8254 97.4811 16.3553 94.5808 18.2858C94.5808 18.2858 76.166 30.677 73.4024 32.4014C70.6382 34.1261 70.0109 36.8203 72.4982 38.3428C74.986 39.862 81.6795 40.3056 85.1295 45.0466C90.5112 52.4399 88.0168 63.2136 80.2805 68.0408C72.5444 72.8679 61.7708 70.3735 57.4951 62.2896C54.7531 57.107 57.2963 50.8999 57.0255 47.9973C56.7511 45.0944 54.055 44.4736 51.2914 46.1981C48.5273 47.9228 29.3035 59.017 29.3035 59.017C26.2946 60.7734 24.4756 65.5601 28.0892 69.3364L43.1522 87.6768C46.306 91.3245 46.923 92.0586 45.9643 94.9064C44.8483 98.2295 38.8846 94.736 32.4689 98.7392C24.8831 103.473 22.5687 113.468 27.3034 121.056C32.0379 128.644 42.0336 130.959 49.6194 126.225C56.0354 122.222 55.5187 115.33 58.9938 115.788C61.9747 116.181 62.3627 117.058 64.2518 121.492L74.1049 143.083C75.9085 147.988 81.0074 148.458 83.9077 146.528C83.9077 146.528 102.323 134.136 105.086 132.412C107.85 130.687 108.477 127.993 105.991 126.47C103.502 124.951 96.809 124.508 93.3591 119.766C87.9773 112.374 90.4721 101.6 98.2084 96.7727C105.945 91.9455 116.718 94.44 120.993 102.523C123.736 107.706 121.192 113.914 121.463 116.816C121.737 119.719 124.434 120.34 127.197 118.615C129.961 116.891 149.185 105.796 149.185 105.796C152.194 104.04 154.013 99.2532 150.4 95.4772L135.336 77.1368C132.183 73.489 131.566 72.7551 132.524 69.907C133.64 66.5841 139.604 70.0774 146.02 66.0742C153.605 61.3409 155.92 51.3448 151.185 43.7571C146.451 36.1691 136.455 33.8548 128.869 38.5882Z" fill="url(#paint0_linear_449_2949)"/>
<defs>
<linearGradient id="paint0_linear_449_2949" x1="61.941" y1="38.6492" x2="116.548" y2="126.164" gradientUnits="userSpaceOnUse">
<stop stop-color="#0EE1FE"/>
<stop offset="0.5" stop-color="#2D6CC0"/>
<stop offset="1" stop-color="#01257F"/>
</linearGradient>
</defs>
</svg>
