<svg width="147" height="147" viewBox="0 0 147 147" fill="none" xmlns="http://www.w3.org/2000/svg">
<path d="M63.3428 50.6262C67.644 42.91 69.7949 39.0519 73.0101 39.0519C76.2253 39.0519 78.3762 42.91 82.6774 50.6262L83.7905 52.6224C85.0123 54.8151 85.6236 55.9114 86.5765 56.6348C87.5293 57.3582 88.7165 57.6268 91.0902 58.1638L93.2506 58.6527C101.604 60.5428 105.78 61.4875 106.774 64.683C107.767 67.8778 104.92 71.207 99.2259 77.8663L97.7521 79.5886C96.1344 81.4808 95.3255 82.4269 94.9614 83.5977C94.5974 84.7679 94.7197 86.0305 94.9642 88.555L95.1869 90.8533C96.0481 99.7375 96.478 104.18 93.8768 106.154C91.2756 108.129 87.3656 106.329 79.545 102.728L77.5218 101.796C75.2989 100.773 74.1878 100.261 73.0101 100.261C71.8324 100.261 70.7213 100.773 68.4984 101.796L66.4752 102.728C58.6548 106.329 54.7445 108.129 52.1432 106.154C49.5419 104.18 49.9724 99.7375 50.8333 90.8533L51.056 88.555C51.3006 86.0305 51.4229 84.7679 51.059 83.5977C50.695 82.4269 49.8859 81.4808 48.2678 79.5886L46.7946 77.8663C41.1003 71.207 38.2531 67.8778 39.2468 64.683C40.2404 61.4875 44.4167 60.5428 52.7694 58.6527L54.9303 58.1638C57.3039 57.6268 58.4907 57.3582 59.4437 56.6348C60.3966 55.9114 61.0079 54.8151 62.2297 52.6224L63.3428 50.6262Z" fill="url(#paint0_linear_449_2936)"/>
<path opacity="0.8" fill-rule="evenodd" clip-rule="evenodd" d="M73.0104 0C75.8235 0 78.1042 2.28057 78.1042 5.09375V18.6771C78.1042 21.4903 75.8235 23.7708 73.0104 23.7708C70.1973 23.7708 67.9167 21.4903 67.9167 18.6771V5.09375C67.9167 2.28057 70.1973 0 73.0104 0ZM0 73.0104C0 70.1973 2.28057 67.9167 5.09375 67.9167H18.6771C21.4903 67.9167 23.7708 70.1973 23.7708 73.0104C23.7708 75.8235 21.4903 78.1042 18.6771 78.1042H5.09375C2.28057 78.1042 0 75.8235 0 73.0104ZM122.25 73.0104C122.25 70.1973 124.531 67.9167 127.344 67.9167H140.927C143.74 67.9167 146.021 70.1973 146.021 73.0104C146.021 75.8235 143.74 78.1042 140.927 78.1042H127.344C124.531 78.1042 122.25 75.8235 122.25 73.0104ZM73.0104 122.25C75.8235 122.25 78.1042 124.531 78.1042 127.344V140.927C78.1042 143.74 75.8235 146.021 73.0104 146.021C70.1973 146.021 67.9167 143.74 67.9167 140.927V127.344C67.9167 124.531 70.1973 122.25 73.0104 122.25Z" fill="url(#paint1_linear_449_2936)"/>
<g opacity="0.5">
<path d="M117.362 28.6584C119.351 30.6476 119.351 33.8729 117.362 35.8621L115.031 38.1934C113.042 40.1826 109.816 40.1826 107.827 38.1934C105.838 36.2042 105.838 32.979 107.827 30.9897L110.159 28.6584C112.148 26.6692 115.373 26.6692 117.362 28.6584Z" fill="url(#paint2_linear_449_2936)"/>
<path d="M28.6584 28.6586C30.6476 26.6693 33.8729 26.6693 35.8621 28.6586L38.1934 30.9899C40.1826 32.9791 40.1826 36.2043 38.1934 38.1935C36.2042 40.1828 32.979 40.1828 30.9897 38.1935L28.6584 35.8622C26.6692 33.873 26.6692 30.6478 28.6584 28.6586Z" fill="url(#paint3_linear_449_2936)"/>
<path d="M38.1919 107.83C40.1812 109.82 40.1812 113.045 38.1919 115.034L35.8621 117.364C33.8728 119.353 30.6476 119.353 28.6584 117.364C26.6692 115.375 26.6692 112.15 28.6584 110.161L30.9883 107.83C32.9775 105.841 36.2027 105.841 38.1919 107.83Z" fill="url(#paint4_linear_449_2936)"/>
<path d="M107.827 107.83C109.816 105.841 113.042 105.841 115.031 107.83L117.36 110.16C119.35 112.149 119.35 115.375 117.36 117.364C115.371 119.353 112.146 119.353 110.156 117.364L107.827 115.034C105.838 113.044 105.838 109.82 107.827 107.83Z" fill="url(#paint5_linear_449_2936)"/>
</g>
<defs>
<linearGradient id="paint0_linear_449_2936" x1="73.0101" y1="39.0519" x2="73.0101" y2="106.969" gradientUnits="userSpaceOnUse">
<stop stop-color="#0EE1FE"/>
<stop offset="0.5" stop-color="#2D6CC0"/>
<stop offset="1" stop-color="#01257F"/>
</linearGradient>
<linearGradient id="paint1_linear_449_2936" x1="73.0104" y1="0" x2="73.0104" y2="146.021" gradientUnits="userSpaceOnUse">
<stop stop-color="#0EE1FE"/>
<stop offset="0.5" stop-color="#2D6CC0"/>
<stop offset="1" stop-color="#01257F"/>
</linearGradient>
<linearGradient id="paint2_linear_449_2936" x1="112.594" y1="27.1665" x2="112.594" y2="39.6853" gradientUnits="userSpaceOnUse">
<stop stop-color="#0EE1FE"/>
<stop offset="0.5" stop-color="#2D6CC0"/>
<stop offset="1" stop-color="#01257F"/>
</linearGradient>
<linearGradient id="paint3_linear_449_2936" x1="33.4259" y1="27.1666" x2="33.4259" y2="39.6855" gradientUnits="userSpaceOnUse">
<stop stop-color="#0EE1FE"/>
<stop offset="0.5" stop-color="#2D6CC0"/>
<stop offset="1" stop-color="#01257F"/>
</linearGradient>
<linearGradient id="paint4_linear_449_2936" x1="33.4252" y1="106.339" x2="33.4252" y2="118.856" gradientUnits="userSpaceOnUse">
<stop stop-color="#0EE1FE"/>
<stop offset="0.5" stop-color="#2D6CC0"/>
<stop offset="1" stop-color="#01257F"/>
</linearGradient>
<linearGradient id="paint5_linear_449_2936" x1="112.594" y1="106.339" x2="112.594" y2="118.856" gradientUnits="userSpaceOnUse">
<stop stop-color="#0EE1FE"/>
<stop offset="0.5" stop-color="#2D6CC0"/>
<stop offset="1" stop-color="#01257F"/>
</linearGradient>
</defs>
</svg>
