<svg width="98" height="143" viewBox="0 0 98 143" fill="none" xmlns="http://www.w3.org/2000/svg">
<path d="M41.1823 37.7623V8.55831C41.1823 3.76703 37.4177 0.00245359 32.6264 0.00245359C27.8351 0.00245359 24.0705 3.76703 24.0705 8.55831V37.7623C24.0705 42.5536 27.8351 46.3182 32.6264 46.3182C37.4177 46.3182 41.1823 42.5536 41.1823 37.7623ZM72.0974 8.55831V29.2064H89.3232V8.55831C89.3232 3.76703 85.5587 0.00245359 80.7674 0.00245359C75.862 -0.111625 72.0974 3.76703 72.0974 8.55831ZM17.1118 37.7623V17.1142C17.1118 12.3229 13.3472 8.55831 8.55593 8.55831C3.76465 8.55831 6.86646e-05 12.3229 6.86646e-05 17.1142V37.7623C6.86646e-05 42.5536 3.76465 46.3182 8.55593 46.3182C13.3472 46.4322 17.1118 42.5536 17.1118 37.7623ZM68.6751 101.418L95.3694 74.7236C96.9665 73.1265 97.9932 70.959 97.9932 68.6775V44.607C97.9932 39.8157 94.2286 36.0511 89.4373 36.0511H56.6969C51.9056 36.0511 48.141 39.8157 48.141 44.607C48.141 49.3983 51.9056 53.1629 56.6969 53.1629H75.5198C77.4591 53.1629 78.9421 54.7599 78.9421 56.5852C78.9421 58.4104 77.345 60.0075 75.5198 60.0075C54.7576 60.0075 37.6458 77.0052 37.6458 97.8815C37.6458 99.8208 36.0488 101.304 34.2235 101.304C32.3983 101.304 30.8012 99.7067 30.8012 97.8815C30.8012 81.5683 39.5852 67.3085 52.7042 59.5512C49.0537 58.5245 45.9735 56.243 43.9201 53.1629C43.9201 53.1629 13.4613 53.1629 8.67 53.1629C5.58989 53.1629 2.50977 52.1362 0.114136 50.5391V75.6362C0.114136 86.2455 5.58989 95.714 13.9176 101.418V142.486H68.6751V101.418ZM48.0269 8.55831V31.8302C50.4226 30.1191 53.5027 29.2064 56.5828 29.2064H65.2527V8.55831C65.2527 3.76703 61.4882 0.00245359 56.6969 0.00245359C51.9056 0.00245359 48.0269 3.76703 48.0269 8.55831Z" fill="url(#paint0_linear_449_2958)"/>
<defs>
<linearGradient id="paint0_linear_449_2958" x1="97.9932" y1="71.243" x2="6.86646e-05" y2="71.243" gradientUnits="userSpaceOnUse">
<stop stop-color="#0EE1FE"/>
<stop offset="0.5" stop-color="#2D6CC0"/>
<stop offset="1" stop-color="#01257F"/>
</linearGradient>
</defs>
</svg>
