<svg width="498" height="493" viewBox="0 0 498 493" fill="none" xmlns="http://www.w3.org/2000/svg">
<g clip-path="url(#clip0_483_5791)">
<path d="M141.052 340.048L141.846 341.806L143.304 340.576C151.941 333.306 164.903 339.725 164.758 351.197L164.734 353.139L166.57 352.681C177.42 349.982 186.391 361.544 181.416 371.816L180.573 373.554L182.419 373.962C193.332 376.367 196.534 390.787 187.718 397.822L186.226 399.013L187.718 400.203C196.534 407.238 193.332 421.658 182.419 424.063L180.573 424.471L181.416 426.209C186.391 436.481 177.42 448.043 166.57 445.344L164.734 444.886L164.758 446.828C164.903 458.3 151.941 464.719 143.304 457.449L141.846 456.219L141.052 457.977C136.339 468.378 121.952 468.378 117.239 457.977L116.445 456.219L114.987 457.449C106.35 464.719 93.3881 458.3 93.5334 446.828L93.5576 444.886L91.7218 445.344C80.8715 448.043 71.9006 436.481 76.8753 426.209L77.7181 424.471L75.8726 424.063C64.9593 421.658 61.7575 407.238 70.5734 400.203L72.0653 399.013L70.5734 397.822C61.7575 390.787 64.9593 376.367 75.8726 373.962L77.7181 373.554L76.8753 371.816C71.9006 361.544 80.8715 349.982 91.7218 352.681L93.5576 353.139L93.5334 351.197C93.3881 339.725 106.35 333.306 114.987 340.576L116.445 341.806L117.239 340.048C121.952 329.647 136.339 329.647 141.052 340.048Z" fill="url(#paint0_linear_483_5791)"/>
<path d="M129.145 466.277C123.793 466.277 119.06 463.175 116.803 458.186L116.27 457.011L115.292 457.832C111.15 461.323 105.58 462.005 100.755 459.615C95.9307 457.225 92.9759 452.325 93.0486 446.818L93.0631 445.519L91.8376 445.822C86.6353 447.117 81.3264 445.25 77.9889 440.948C74.6515 436.646 74.0605 430.909 76.4437 425.985L77.0056 424.825L75.7704 424.551C70.5342 423.396 66.5428 419.348 65.3512 413.98C64.1596 408.612 66.0487 403.185 70.2775 399.809L71.2753 399.012L70.2775 398.216C66.0487 394.84 64.1596 389.412 65.3512 384.045C66.5428 378.677 70.5342 374.629 75.7704 373.474L77.0056 373.2L76.4437 372.04C74.0557 367.11 74.6467 361.379 77.9889 357.077C81.3264 352.775 86.6353 350.908 91.8376 352.203L93.0631 352.506L93.0486 351.207C92.9759 345.705 95.9307 340.8 100.755 338.41C105.58 336.02 111.15 336.707 115.292 340.193L116.27 341.014L116.803 339.839C119.065 334.85 123.793 331.748 129.145 331.748C134.498 331.748 139.23 334.85 141.492 339.839L142.025 341.014L143.004 340.193C147.145 336.707 152.716 336.02 157.54 338.41C162.365 340.8 165.319 345.7 165.247 351.207L165.232 352.506L166.458 352.203C171.66 350.908 176.969 352.775 180.306 357.077C183.644 361.379 184.235 367.115 181.852 372.04L181.29 373.2L182.525 373.474C187.761 374.629 191.752 378.677 192.944 384.045C194.136 389.412 192.247 394.84 188.018 398.216L187.02 399.012L188.018 399.809C192.247 403.185 194.136 408.612 192.944 413.98C191.752 419.348 187.761 423.396 182.525 424.551L181.29 424.825L181.852 425.985C184.24 430.914 183.649 436.646 180.306 440.948C176.969 445.25 171.66 447.122 166.458 445.827L165.232 445.524L165.247 446.823C165.319 452.325 162.365 457.23 157.54 459.62C152.716 462.005 147.145 461.323 143.004 457.837L142.025 457.016L141.492 458.191C139.23 463.18 134.503 466.282 129.15 466.282L129.145 466.277ZM116.619 455.427L117.68 457.767C119.777 462.403 124.171 465.281 129.145 465.281C134.12 465.281 138.513 462.403 140.611 457.767L141.672 455.427L143.614 457.065C147.46 460.307 152.633 460.939 157.119 458.724C161.599 456.508 164.341 451.952 164.278 446.838L164.244 444.259L166.685 444.866C171.52 446.066 176.451 444.333 179.551 440.335C182.651 436.337 183.203 431.014 180.985 426.433L179.866 424.123L182.321 423.58C187.185 422.509 190.895 418.745 191.999 413.761C193.104 408.777 191.355 403.733 187.422 400.596L185.436 399.012L187.422 397.429C191.35 394.292 193.104 389.248 191.999 384.264C190.895 379.28 187.185 375.515 182.321 374.445L179.866 373.902L180.985 371.592C183.203 367.016 182.651 361.688 179.551 357.69C176.451 353.691 171.52 351.959 166.685 353.159L164.244 353.766L164.278 351.187C164.341 346.073 161.599 341.522 157.119 339.301C152.638 337.081 147.465 337.718 143.614 340.959L141.672 342.598L140.611 340.257C138.513 335.622 134.12 332.744 129.145 332.744C124.171 332.744 119.777 335.622 117.68 340.257L116.619 342.598L114.677 340.959C110.83 337.718 105.657 337.086 101.172 339.301C96.6912 341.522 93.9495 346.073 94.0125 351.187L94.0464 353.766L91.6051 353.159C86.7709 351.954 81.8398 353.691 78.7397 357.69C75.6396 361.688 75.0874 367.011 77.3059 371.592L78.4249 373.902L75.969 374.445C71.1058 375.515 67.3954 379.28 66.2909 384.264C65.1865 389.248 66.9352 394.292 70.8684 397.429L72.8496 399.012L70.8684 400.596C66.94 403.733 65.1865 408.777 66.2909 413.761C67.3954 418.745 71.1058 422.509 75.969 423.58L78.4249 424.123L77.3059 426.433C75.0874 431.009 75.6396 436.337 78.7397 440.335C81.8398 444.333 86.7709 446.066 91.6051 444.866L94.0464 444.259L94.0125 446.838C93.9495 451.952 96.6912 456.503 101.172 458.724C105.652 460.944 110.826 460.307 114.677 457.065L116.619 455.427Z" fill="black"/>
<path d="M343.524 49.1018C364.214 31.6796 395.273 47.0552 394.92 74.5456C420.915 68.075 442.409 95.7816 430.487 120.393C456.637 126.158 464.31 160.71 443.182 177.567C464.31 194.423 456.637 228.975 430.487 234.74C442.409 259.352 420.909 287.058 394.92 280.588C395.273 308.078 364.214 323.454 343.524 306.031C332.239 330.954 297.761 330.954 286.476 306.031C265.786 323.454 234.727 308.078 235.08 280.588C209.085 287.058 187.591 259.352 199.513 234.74C173.363 228.975 165.69 194.423 186.818 177.567C165.69 160.71 173.363 126.158 199.513 120.393C187.591 95.7816 209.091 68.075 235.08 74.5456C234.727 47.0552 265.786 31.6796 286.476 49.1018C297.761 24.1793 332.239 24.1793 343.524 49.1018Z" fill="url(#paint1_linear_483_5791)"/>
<path d="M315 325.361C302.646 325.361 291.701 318.356 286.253 307.029C276.564 314.803 263.746 316.233 252.616 310.729C241.486 305.218 234.585 294.031 234.455 281.388C222.441 284.071 210.29 279.647 202.586 269.719C194.881 259.79 193.385 246.627 198.61 235.185C186.651 232.242 177.574 222.835 174.829 210.46C172.077 198.078 176.288 185.556 185.823 177.573C176.288 169.59 172.083 157.068 174.835 144.686C177.586 132.304 186.664 122.897 198.616 119.961C193.397 108.519 194.894 95.3558 202.592 85.4274C210.297 75.4991 222.441 71.0751 234.461 73.7575C234.591 61.1214 241.492 49.9281 252.622 44.4173C263.752 38.9065 276.564 40.3367 286.26 48.1166C291.707 36.7899 302.652 29.7854 315.006 29.7854C327.361 29.7854 338.305 36.7899 343.753 48.1166C353.442 40.3367 366.26 38.9065 377.39 44.4173C388.52 49.9281 395.421 61.115 395.551 73.7575C407.565 71.0751 419.716 75.4991 427.414 85.4274C435.119 95.3558 436.615 108.519 431.39 119.961C443.349 122.903 452.426 132.311 455.171 144.686C457.923 157.068 453.712 169.59 444.177 177.573C453.712 185.556 457.917 198.078 455.171 210.46C452.42 222.842 443.342 232.249 431.39 235.185C436.609 246.627 435.112 259.79 427.414 269.719C419.71 279.647 407.559 284.077 395.551 281.388C395.421 294.025 388.52 305.218 377.39 310.729C366.26 316.239 353.442 314.809 343.753 307.029C338.305 318.356 327.361 325.361 315.006 325.361H315ZM286.699 305.021L287.033 305.764C292.152 317.066 302.868 324.089 314.994 324.089C327.119 324.089 337.835 317.066 342.955 305.764L343.289 305.021L343.907 305.542C353.288 313.443 365.908 314.987 376.834 309.578C387.76 304.169 394.45 293.065 394.296 280.594L394.283 279.774L395.056 279.965C406.848 282.901 418.869 278.668 426.431 268.918C433.993 259.167 435.335 246.182 429.931 235.02L429.578 234.289L430.357 234.118C442.217 231.505 451.263 222.327 453.959 210.167C456.655 198.014 452.383 185.709 442.798 178.069L442.168 177.567L442.798 177.064C452.383 169.418 456.655 157.119 453.959 144.959C451.263 132.8 442.217 123.628 430.357 121.016L429.578 120.844L429.931 120.113C435.335 108.952 433.993 95.9596 426.431 86.2156C418.869 76.4652 406.848 72.232 395.056 75.1685L394.283 75.3592L394.296 74.5393C394.457 62.0748 387.766 50.9642 376.834 45.5551C365.908 40.146 353.288 41.6905 343.907 49.5913L343.289 50.1125L342.955 49.3688C337.835 38.0675 327.119 31.0439 314.994 31.0439C302.868 31.0439 292.146 38.0675 287.033 49.3688L286.699 50.1125L286.08 49.5913C276.7 41.6905 264.08 40.146 253.154 45.5551C242.228 50.9642 235.537 62.0684 235.692 74.5393L235.704 75.3592L234.931 75.1685C223.14 72.232 211.119 76.4652 203.557 86.2156C195.994 95.966 194.653 108.952 200.057 120.113L200.409 120.844L199.63 121.016C187.771 123.628 178.724 132.806 176.028 144.966C173.326 157.119 177.605 169.424 187.183 177.064L187.814 177.567L187.183 178.069C177.599 185.715 173.326 198.014 176.028 210.174C178.73 222.333 187.771 231.505 199.63 234.118L200.409 234.289L200.057 235.02C194.653 246.182 195.994 259.174 203.557 268.918C211.119 278.668 223.14 282.901 234.931 279.965L235.704 279.774L235.692 280.594C235.531 293.058 242.221 304.169 253.154 309.578C264.08 314.987 276.7 313.443 286.08 305.542L286.699 305.021Z" fill="black"/>
<path d="M286.908 456.144H250.506L241.017 391.174H277.418L286.908 456.144Z" fill="#01257F"/>
<path d="M287.47 456.642H250.09L240.45 390.677H277.83L287.47 456.642ZM250.923 455.646H286.341L276.997 391.672H241.579L250.923 455.646Z" fill="black"/>
<path d="M192.269 492.502L202.276 455.083H334.829L340.298 492.502H192.269Z" fill="#01257F"/>
<path d="M340.859 493H191.634L201.908 454.585H335.25L340.864 493H340.859ZM192.908 492.004H339.736L334.417 455.581H202.649L192.908 492.004Z" fill="black"/>
<path d="M86.6723 391.174H35.5596L0.5625 151.623H51.6752L86.6723 391.174Z" fill="#01257F"/>
<path d="M87.2336 391.672H35.1424L0 151.125H52.0912L87.2336 391.672ZM35.9755 390.676H86.1049L51.2532 152.121H1.12378L35.9755 390.676Z" fill="black"/>
<path d="M497.432 391.174H48.501L13.5039 151.623H462.44L497.432 391.174Z" fill="white"/>
<path d="M498 391.672H48.0848L48.0218 391.249L12.9424 151.125H462.857L462.92 151.548L498 391.672ZM48.9179 390.676H496.876L462.024 152.121H14.0662L48.9179 390.676Z" fill="black"/>
<path d="M487.9 382.007H57.167L24.8486 160.79H455.586L487.9 382.007Z" fill="black"/>
<path d="M488.462 382.505H56.7508L24.2871 160.292H455.999L488.462 382.505ZM57.584 381.51H487.339L455.165 161.288H25.4109L57.584 381.51Z" fill="black"/>
<path d="M300.66 456.144H264.258L254.769 391.174H291.165L300.66 456.144Z" fill="url(#paint2_linear_483_5791)"/>
<path d="M301.222 456.642H263.841L254.202 390.677H291.582L301.222 456.642ZM264.675 455.646H300.093L290.749 391.672H255.331L264.675 455.646Z" fill="black"/>
<path d="M221.491 492.502L216.027 455.083H348.58L354.049 492.502H221.491Z" fill="url(#paint3_linear_483_5791)"/>
<path d="M354.611 493H221.075L215.461 454.585H348.997L354.611 493ZM221.908 492.004H353.483L348.164 455.581H216.59L221.908 492.004Z" fill="black"/>
<path d="M254.769 391.174L256.963 406.212H293.2L291.165 391.174H254.769Z" fill="black"/>
<path d="M293.757 406.71H256.547L254.202 390.677H291.587L293.752 406.71H293.757ZM257.38 405.714H292.643L290.744 391.672H255.331L257.38 405.714Z" fill="black"/>
<path d="M406.76 293.696H247.474C243.832 293.696 240.325 290.653 239.661 286.914L220.804 181.175C220.469 179.312 220.881 177.555 221.957 176.225C223.008 174.926 224.567 174.214 226.345 174.214H385.631C389.274 174.214 392.781 177.256 393.445 180.995L412.302 286.735C412.636 288.597 412.224 290.354 411.149 291.684C410.098 292.984 408.538 293.696 406.76 293.696ZM226.345 175.204C224.863 175.204 223.57 175.792 222.702 176.863C221.816 177.958 221.477 179.427 221.758 180.995L240.615 286.735C241.201 290.026 244.282 292.7 247.479 292.7H406.765C408.248 292.7 409.541 292.112 410.408 291.042C411.294 289.946 411.633 288.477 411.352 286.909L392.495 181.17C391.909 177.878 388.828 175.204 385.631 175.204H226.345Z" fill="url(#paint4_linear_483_5791)"/>
<path d="M263.101 317.183H165.003C162.673 317.183 160.435 315.241 160.009 312.851L148.393 247.732C148.18 246.527 148.446 245.392 149.144 244.526C149.827 243.679 150.839 243.216 151.987 243.216H250.085C252.415 243.216 254.653 245.158 255.079 247.548L266.695 312.667C266.908 313.872 266.642 315.007 265.944 315.873C265.261 316.72 264.249 317.183 263.101 317.183ZM151.987 244.212C151.13 244.212 150.384 244.551 149.885 245.163C149.371 245.795 149.182 246.642 149.342 247.548L160.958 312.667C161.297 314.574 163.147 316.182 165.003 316.182H263.101C263.958 316.182 264.704 315.843 265.203 315.231C265.717 314.599 265.906 313.752 265.746 312.846L254.13 247.727C253.791 245.82 251.941 244.212 250.085 244.212H151.987Z" fill="url(#paint5_linear_483_5791)"/>
<path d="M159.257 245.915C160.376 251.731 156.332 256.446 150.223 256.446C144.115 256.446 138.264 251.731 137.145 245.915C136.026 240.099 140.071 235.384 146.179 235.384C152.287 235.384 158.138 240.099 159.257 245.915Z" fill="url(#paint6_linear_483_5791)"/>
<path d="M172.273 318.891C173.392 324.706 169.347 329.422 163.239 329.422C157.131 329.422 151.28 324.706 150.161 318.891C149.042 313.075 153.086 308.36 159.194 308.36C165.303 308.36 171.154 313.075 172.273 318.891Z" fill="url(#paint7_linear_483_5791)"/>
<path d="M298.098 216.637L297.129 216.577C297.148 216.253 297.662 208.665 302.661 205.244L303.198 206.071C298.606 209.218 298.103 216.562 298.098 216.637Z" fill="black"/>
<path d="M310.063 222.617L309.094 222.557C309.113 222.233 309.627 214.645 314.625 211.224L315.163 212.051C310.571 215.198 310.067 222.542 310.063 222.617Z" fill="black"/>
<path d="M287.775 210.507L286.807 210.448C286.826 210.124 287.339 202.536 292.338 199.115L292.876 199.942C288.274 203.093 287.78 210.433 287.775 210.507Z" fill="black"/>
<path d="M421.927 292.989C423.046 298.804 419.002 303.52 412.893 303.52C406.785 303.52 400.934 298.804 399.815 292.989C398.696 287.173 402.741 282.458 408.849 282.458C414.957 282.458 420.808 287.173 421.927 292.989Z" fill="url(#paint8_linear_483_5791)"/>
<path d="M353.091 295.653L346.406 298.585L343.582 305.238C342.86 306.926 340.38 306.841 339.465 305.093L335.846 298.212L328.779 294.796C326.992 293.93 326.842 291.49 328.542 290.748L335.231 287.815L338.055 281.163C338.767 279.475 341.247 279.56 342.168 281.307L345.791 288.189L352.853 291.609C354.641 292.476 354.791 294.916 353.091 295.658V295.653Z" fill="white"/>
<path d="M341.678 306.95C340.588 306.95 339.561 306.323 339.038 305.327L335.497 298.59L328.576 295.244C327.52 294.731 326.846 293.671 326.866 292.541C326.885 291.53 327.442 290.688 328.353 290.285L334.868 287.432L337.614 280.959C337.997 280.058 338.825 279.49 339.833 279.445C340.971 279.4 342.051 280.033 342.599 281.063L346.149 287.8L353.066 291.151C354.122 291.664 354.795 292.725 354.776 293.855C354.757 294.866 354.2 295.707 353.289 296.111L346.779 298.964L344.032 305.437C343.645 306.343 342.812 306.906 341.804 306.95C341.765 306.95 341.722 306.95 341.683 306.95H341.678ZM339.949 280.436C339.92 280.436 339.896 280.436 339.867 280.436C339.232 280.466 338.728 280.799 338.496 281.352L335.594 288.189L328.726 291.201C328.164 291.445 327.839 291.938 327.83 292.555C327.815 293.292 328.27 293.994 328.982 294.338L336.195 297.828L339.891 304.854C340.259 305.556 340.995 305.994 341.761 305.955C342.4 305.93 342.904 305.591 343.141 305.038L346.043 298.202L352.906 295.19C353.463 294.946 353.793 294.453 353.802 293.835C353.817 293.098 353.362 292.396 352.65 292.053L345.442 288.562L341.741 281.536C341.388 280.859 340.69 280.436 339.954 280.436H339.949Z" fill="black"/>
<path d="M152.902 176.703H47.3438V177.699H152.902V176.703Z" fill="url(#paint9_linear_483_5791)"/>
<path d="M154.927 187.513H49.3691V188.509H154.927V187.513Z" fill="url(#paint10_linear_483_5791)"/>
<path d="M156.947 198.323H51.3887V199.319H156.947V198.323Z" fill="url(#paint11_linear_483_5791)"/>
<path d="M158.971 209.133H53.4131V210.129H158.971V209.133Z" fill="url(#paint12_linear_483_5791)"/>
<path d="M466.35 343.837H250.623V344.833H466.35V343.837Z" fill="url(#paint13_linear_483_5791)"/>
<path d="M468.777 352.844H253.05V353.84H468.777V352.844Z" fill="url(#paint14_linear_483_5791)"/>
<path d="M470.661 363.928H254.934V364.924H470.661V363.928Z" fill="url(#paint15_linear_483_5791)"/>
<path d="M43.1659 354.71L30.4453 356.239L30.5578 357.228L43.2784 355.699L43.1659 354.71Z" fill="black"/>
<path d="M42.0545 345.574L29.334 347.103L29.4465 348.092L42.1671 346.563L42.0545 345.574Z" fill="black"/>
<path d="M41.3397 337.152L28.6191 338.681L28.7317 339.671L41.4522 338.141L41.3397 337.152Z" fill="black"/>
<path d="M352.906 484.182H220.349V485.177H352.906V484.182Z" fill="black"/>
</g>
<defs>
<linearGradient id="paint0_linear_483_5791" x1="129.146" y1="332.247" x2="129.146" y2="465.778" gradientUnits="userSpaceOnUse">
<stop stop-color="#FAE11D"/>
<stop offset="0.427885" stop-color="#F28C38"/>
<stop offset="1" stop-color="#EB5733"/>
</linearGradient>
<linearGradient id="paint1_linear_483_5791" x1="315" y1="30.4099" x2="315" y2="324.723" gradientUnits="userSpaceOnUse">
<stop stop-color="#FAE11D"/>
<stop offset="0.427885" stop-color="#F28C38"/>
<stop offset="1" stop-color="#EB5733"/>
</linearGradient>
<linearGradient id="paint2_linear_483_5791" x1="277.714" y1="391.174" x2="277.714" y2="456.144" gradientUnits="userSpaceOnUse">
<stop stop-color="#FAE11D"/>
<stop offset="0.427885" stop-color="#F28C38"/>
<stop offset="1" stop-color="#EB5733"/>
</linearGradient>
<linearGradient id="paint3_linear_483_5791" x1="285.038" y1="455.083" x2="285.038" y2="492.502" gradientUnits="userSpaceOnUse">
<stop stop-color="#FAE11D"/>
<stop offset="0.427885" stop-color="#F28C38"/>
<stop offset="1" stop-color="#EB5733"/>
</linearGradient>
<linearGradient id="paint4_linear_483_5791" x1="316.553" y1="174.214" x2="316.553" y2="293.696" gradientUnits="userSpaceOnUse">
<stop stop-color="#FAE11D"/>
<stop offset="0.427885" stop-color="#F28C38"/>
<stop offset="1" stop-color="#EB5733"/>
</linearGradient>
<linearGradient id="paint5_linear_483_5791" x1="207.544" y1="243.216" x2="207.544" y2="317.183" gradientUnits="userSpaceOnUse">
<stop stop-color="#FAE11D"/>
<stop offset="0.427885" stop-color="#F28C38"/>
<stop offset="1" stop-color="#EB5733"/>
</linearGradient>
<linearGradient id="paint6_linear_483_5791" x1="148.201" y1="235.384" x2="148.201" y2="256.446" gradientUnits="userSpaceOnUse">
<stop stop-color="#FAE11D"/>
<stop offset="0.427885" stop-color="#F28C38"/>
<stop offset="1" stop-color="#EB5733"/>
</linearGradient>
<linearGradient id="paint7_linear_483_5791" x1="161.217" y1="308.36" x2="161.217" y2="329.422" gradientUnits="userSpaceOnUse">
<stop stop-color="#FAE11D"/>
<stop offset="0.427885" stop-color="#F28C38"/>
<stop offset="1" stop-color="#EB5733"/>
</linearGradient>
<linearGradient id="paint8_linear_483_5791" x1="410.871" y1="282.458" x2="410.871" y2="303.52" gradientUnits="userSpaceOnUse">
<stop stop-color="#FAE11D"/>
<stop offset="0.427885" stop-color="#F28C38"/>
<stop offset="1" stop-color="#EB5733"/>
</linearGradient>
<linearGradient id="paint9_linear_483_5791" x1="100.123" y1="176.703" x2="100.123" y2="177.699" gradientUnits="userSpaceOnUse">
<stop stop-color="#FAE11D"/>
<stop offset="0.427885" stop-color="#F28C38"/>
<stop offset="1" stop-color="#EB5733"/>
</linearGradient>
<linearGradient id="paint10_linear_483_5791" x1="102.148" y1="187.513" x2="102.148" y2="188.509" gradientUnits="userSpaceOnUse">
<stop stop-color="#FAE11D"/>
<stop offset="0.427885" stop-color="#F28C38"/>
<stop offset="1" stop-color="#EB5733"/>
</linearGradient>
<linearGradient id="paint11_linear_483_5791" x1="104.168" y1="198.323" x2="104.168" y2="199.319" gradientUnits="userSpaceOnUse">
<stop stop-color="#FAE11D"/>
<stop offset="0.427885" stop-color="#F28C38"/>
<stop offset="1" stop-color="#EB5733"/>
</linearGradient>
<linearGradient id="paint12_linear_483_5791" x1="106.192" y1="209.133" x2="106.192" y2="210.129" gradientUnits="userSpaceOnUse">
<stop stop-color="#FAE11D"/>
<stop offset="0.427885" stop-color="#F28C38"/>
<stop offset="1" stop-color="#EB5733"/>
</linearGradient>
<linearGradient id="paint13_linear_483_5791" x1="358.487" y1="343.837" x2="358.487" y2="344.833" gradientUnits="userSpaceOnUse">
<stop stop-color="#FAE11D"/>
<stop offset="0.427885" stop-color="#F28C38"/>
<stop offset="1" stop-color="#EB5733"/>
</linearGradient>
<linearGradient id="paint14_linear_483_5791" x1="360.913" y1="352.844" x2="360.913" y2="353.84" gradientUnits="userSpaceOnUse">
<stop stop-color="#FAE11D"/>
<stop offset="0.427885" stop-color="#F28C38"/>
<stop offset="1" stop-color="#EB5733"/>
</linearGradient>
<linearGradient id="paint15_linear_483_5791" x1="362.797" y1="363.928" x2="362.797" y2="364.924" gradientUnits="userSpaceOnUse">
<stop stop-color="#FAE11D"/>
<stop offset="0.427885" stop-color="#F28C38"/>
<stop offset="1" stop-color="#EB5733"/>
</linearGradient>
<clipPath id="clip0_483_5791">
<rect width="498" height="493" fill="white"/>
</clipPath>
</defs>
</svg>
