<?xml version="1.0" encoding="UTF-8"?>
<svg id="Layer_2" data-name="Layer 2" xmlns="http://www.w3.org/2000/svg" xmlns:xlink="http://www.w3.org/1999/xlink" viewBox="0 0 148.56 113.38">
  <defs>
    <style>
      .cls-1 {
        fill: url(#linear-gradient);
      }

      .cls-2 {
        fill: #01257f;
      }
    </style>
    <linearGradient id="linear-gradient" x1="74.16" y1="0" x2="74.16" y2="44.1" gradientUnits="userSpaceOnUse">
      <stop offset="0" stop-color="#fae11d"/>
      <stop offset=".46" stop-color="#f97d1f"/>
      <stop offset="1" stop-color="#eb5733"/>
    </linearGradient>
  </defs>
  <g id="Layer_1-2" data-name="Layer 1">
    <path class="cls-2" d="M147.43,96.42l-30.72-66.03c-1.94-4.17-5.94-6.58-10.12-6.65,0,0,0,0-.01,0-.44,0-.87,0-1.3.05-3.98.23-7.74,2.55-9.64,6.5l-21.42,44.61-20.82-44.76c-.11-.25-.28-.45-.4-.68-.07-.14-.16-.27-.24-.4-.29-.47-.58-.93-.92-1.35-.21-.27-.45-.51-.68-.76-.25-.26-.49-.52-.76-.75-.39-.35-.82-.65-1.27-.95-.14-.09-.27-.19-.41-.27-.22-.13-.41-.3-.65-.42-5.66-2.9-12.53-.51-15.34,5.34L1.2,95.54c-2.81,5.85-.5,12.95,5.17,15.85,5.66,2.9,12.53.51,15.34-5.34l21.12-44,20.64,44.37c2.26,4.86,7.31,7.34,12.21,6.49.16-.02.31-.05.46-.07.23-.05.47-.1.7-.17,3.26-.75,6.18-2.91,7.78-6.24l21.36-44.49,20.81,44.73c2.74,5.89,9.58,8.37,15.28,5.54h0c5.7-2.83,8.1-9.9,5.36-15.79Z"/>
    <path class="cls-1" d="M98.92,6.99l-20.69,34.83c-1.8,3.03-6.28,3.03-8.08,0L49.39,6.87c-2.2-3.7,1.55-8.06,5.66-6.58l13.72,4.94,4.06,19.31c.3,1.45,2.42,1.45,2.73,0l4.04-19.21L93.26.41c4.11-1.48,7.86,2.87,5.66,6.58Z"/>
  </g>
</svg>